<?xml version="1.0" encoding="utf-8"?>
<!-- Generator: Adobe Illustrator 25.2.3, SVG Export Plug-In . SVG Version: 6.00 Build 0)  -->
<svg version="1.1" id="Ebene_1" xmlns="http://www.w3.org/2000/svg" xmlns:xlink="http://www.w3.org/1999/xlink" x="0px" y="0px"
	 viewBox="0 0 250 231" style="enable-background:new 0 0 250 231;" xml:space="preserve">
<style type="text/css">
	.st0{display:none;}
	.st1{display:inline;fill:#F9F0ED;}
	.st2{display:inline;fill:#F5F4EE;}
	.st3{display:inline;fill:#FB635D;}
	.st4{display:inline;}
	.st5{fill:#FB635D;}
	.st6{display:inline;fill:#FFFFFF;}
	.st7{fill:#FB635D;stroke:#FB635D;stroke-width:2;stroke-miterlimit:10;}
	.st8{fill:#F5F4EE;}
</style>
<g id="Background" class="st0">
	<rect id="Background_4_" x="-94.8" y="-176.4" class="st1" width="1200" height="1200"/>
</g>
<g id="Graphic_Elements">
	<g class="st0">
		<path class="st2" d="M235.5-198.5c-1.6-3.6-3.4-7.3-5.6-11.2c-12.3-21.8-34.6-36.5-58-45.5c-23.4-9-48.4-13.1-72.9-18.9
			c-10.4-2.5-20.9-5.3-31.5-5.2c-22.4,0.2-43.4,13.5-56.3,31.6s-18.4,40.8-19.3,63c-0.8,19.9,2.2,40.8,13.4,57.3
			c6,8.9,14.1,16.1,22.1,23.1c12.5,11.1,25,22.1,37.5,33.2c6.7,6,13.6,12.1,21.6,16.1c26.4,13.4,66.6,2.6,87.5-16
			c5-4.4,10.3-8.5,15.6-12.5c10.3-7.6,20.9-15.1,29.2-25c7-8.5,12.4-18,16.1-28.4C243.5-160.1,244.4-177.8,235.5-198.5z"/>
		<path class="st3" d="M181.3-113.2v-39.6c0-1.9-1.1-3.6-2.9-4.4l-19.8-8.1c-2.4-1-5.1,0.2-6,2.5l-0.7,1.7c-5.3-2-10.6-3.6-16-4.7
			c-7.1-1.4-9.6-1-22.1,1.8h-0.1c-4.4,1-6.2,2.7-20.7,12.6c-3.6,2.4-4.2,5.6-3.8,8.2l-1.7-0.1c-0.6-0.6-1.2-1.1-1.9-1.5l-16.9-10
			c-4.1-2.5-9.5-1.1-11.9,3c-1.4,2.3-1.6,5-0.7,7.4c-2.4,1.1-4.1,3.1-4.8,5.9c0,0,0,0,0,0.1c-1.4,7.2,5.4,10.3,7.7,10.7
			c44.6,9,40.9,8.2,41.7,8.3c1,0.1,2-0.6,2.1-1.7c0.1-1-0.6-2-1.7-2.1c-0.6-0.1-10.7-2.1-41.3-8.3c-1.1-0.3-5.6-1.8-4.7-6.2
			c0.8-3.4,3.7-4.1,7.1-3.6c0.1,0,28.6,2,28.7,2c2,2.6,5.3,3.8,8.8,2c4.5-2.2,15.1-7.4,15.2-7.4c0.9-0.5,1.3-1.6,0.9-2.6
			c-0.5-0.9-1.6-1.3-2.6-0.9c-0.1,0.1-10.7,5.3-15.2,7.5c-2.8,1.4-4.3-1.1-4.4-1.4l0,0l0,0c-0.3-0.6-2-3.8,1.5-6.1
			c14.3-9.8,15.9-11.2,19.5-12l0,0c12-2.6,14.2-3,20.5-1.7c5.1,1,10.2,2.5,15.3,4.5c-2.9,7-9.1,22-9.4,22.7l-2.1-0.9
			c-2.8-1.1-5.8-1.5-8.8-0.9c-2.8,0.5-5.1,1.2-8,3.3c-12.5,8.5-11.7,8.1-13.2,8.7c-1,0.4-1.4,1.6-0.9,2.5c0.4,1,1.6,1.4,2.5,0.9
			c1.8-0.8,1.1-0.4,13.7-9c3.9-2.6,8.9-3.8,13.2-2l2.1,0.9l-0.7,1.7c-1,2.4,0.2,5.1,2.5,6l34.4,14.1
			C178.4-108.4,181.3-110.3,181.3-113.2z M79.7-143.9c-0.3,0-19.6-1.4-19.9-1.4c-2.2-4.3,2.7-8.9,6.9-6.4L79.7-143.9z M177.4-113.2
			c0,0.1-0.1,0.2-0.3,0.2l-34.4-14.1c-0.4-0.2-0.6-0.6-0.4-1.1c1.7-4,12.2-29.6,13.7-33.1c0.2-0.4,0.6-0.6,1.1-0.4l19.8,8.1
			c0.3,0.1,0.6,0.5,0.6,0.8v39.6H177.4z"/>
		<path class="st3" d="M68.1-183.7l-1.1,6.4c-0.4,2.4,2.1,4.3,4.4,3.2l5.9-3l5.9,3c2.2,1.1,4.8-0.7,4.4-3.2l-1.1-6.4l4.7-4.5
			c1.8-1.7,0.8-4.8-1.7-5.1l-6.6-0.9L80-200c-1.1-2.2-4.3-2.2-5.4,0l-2.9,5.8l-6.6,0.9c-2.5,0.4-3.5,3.4-1.7,5.1L68.1-183.7z
			 M67.2-189.8l5.3-0.8c1-0.1,1.8-0.7,2.3-1.6l2.4-4.8l2.4,4.8c0.4,0.9,1.3,1.5,2.3,1.6l5.3,0.8l-3.8,3.6c-0.7,0.7-1.1,1.7-0.9,2.7
			l0.9,5.2l-4.8-2.5c-0.9-0.4-1.9-0.4-2.8,0l-4.8,2.5l0.9-5.2c0.2-1-0.2-2-0.9-2.7L67.2-189.8z"/>
		<path class="st3" d="M136.8-188.2l4.7,4.5l-1.1,6.4c-0.4,2.4,2.1,4.3,4.4,3.2l5.9-3l5.9,3c2.2,1.1,4.8-0.7,4.4-3.2l-1.1-6.4
			l4.7-4.5c1.8-1.7,0.8-4.8-1.7-5.1l-6.6-0.9l-2.9-5.8c-1.1-2.2-4.3-2.2-5.4,0l-2.9,5.8l-6.6,0.9C136-193,135-190,136.8-188.2z
			 M140.7-189.8l5.3-0.8c1-0.1,1.8-0.7,2.3-1.6l2.4-4.8l2.4,4.8c0.4,0.9,1.3,1.5,2.3,1.6l5.3,0.8l-3.8,3.6c-0.7,0.7-1.1,1.7-0.9,2.7
			l0.9,5.2l-4.8-2.5c-0.9-0.4-1.9-0.4-2.8,0l-4.8,2.5l0.9-5.2c0.2-1-0.2-2-0.9-2.7L140.7-189.8z"/>
		<path class="st3" d="M100.2-203.2l-4.9-4.7l11-1.6c1.2-0.2,2.2-0.9,2.8-2l4.9-9.8l4.9,9.8c0.5,1.1,1.6,1.8,2.8,2l11,1.6l-7.9,7.6
			c-0.9,0.8-1.3,2.1-1.1,3.3l1.9,10.7l-9.9-5.1c-1.1-0.5-2.3-0.5-3.4,0l-9.9,5.1l1.1-6.2c0.2-1-0.5-2-1.6-2.2c-1-0.2-2,0.5-2.2,1.6
			l-1.1,6.5c-0.5,3,2.6,5.3,5.3,3.9L114-188l10.1,5.2c2.7,1.4,5.9-0.9,5.3-3.9l-1.9-11l8.1-7.7c2.2-2.1,1-5.8-2-6.2l-11.2-1.6l-5-10
			c-1.4-2.7-5.2-2.7-6.6,0l-5,10l-11.2,1.6c-3,0.4-4.2,4.1-2,6.2l5.2,5c0.8,0.7,2,0.7,2.7-0.1C101-201.3,101-202.4,100.2-203.2z"/>
	</g>
	<g class="st0">
		<path class="st2" d="M-68.6-116.4c-4.8,12.2-11.7,23.7-21.6,31.4c-12.2,9.6-27.7,12.4-42.4,16.1c-32.5,8-64.7,20.8-98,19.9
			s-69.5-20.4-77.9-55.3c-9.3-38.3,16.9-74.7,28.9-112.1c4.3-13.5,7-27.8,14.5-39.4c33.3-51.4,90.1-4,129.6,8.4
			C-79.4-230-43.6-180.4-68.6-116.4z"/>
		<g class="st4">
			<path class="st5" d="M-184.5-188.1c-14,0-26.1,10-28.7,23.7c-0.2,1.2,0.5,2.3,1.7,2.5c1.2,0.2,2.3-0.5,2.5-1.7
				c2.2-11.8,12.5-20.2,24.5-20.2c13.7,0,24.9,11.2,24.9,24.8c0,13.7-11.2,24.8-24.9,24.8c-12,0-22.3-8.5-24.5-20.2
				c-0.2-1.2-1.3-1.9-2.5-1.7c-1.2,0.2-1.9,1.3-1.7,2.5c2.6,13.8,14.6,23.7,28.7,23.7c16.1,0,29.1-13.1,29.1-29
				S-168.4-188.1-184.5-188.1z"/>
			<path class="st5" d="M-126.9-173.9h-5c-1.2,0-2.1,1-2.1,2.1c0,1.2,1,2.1,2.1,2.1h5c5.9,0,10.8,4.8,10.8,10.8
				c0,5.9-4.8,10.8-10.8,10.8h-19.2c0.9-3.2,1.4-6.6,1.5-10c0-0.5,0-1,0-1.6c-0.1-3.4-0.6-6.7-1.5-10h4.3c1.2,0,2.1-1,2.1-2.1
				c0-1.2-1-2.1-2.1-2.1h-5.8c-5.9-14.6-20.2-24.7-36.9-24.7c-16.6,0-30.9,10.3-36.8,24.7H-252c-2.7,0-5,2.2-5,5v20c0,2.7,2.2,5,5,5
				h16.8c1.2,0,2.1-1,2.1-2.1c0-1.2-1-2.1-2.1-2.1h-2.4v-21.4h14.9c-0.9,3.2-1.4,6.6-1.5,10c0,0.5,0,1,0,1.6c0.1,3.4,0.6,6.7,1.5,10
				h-2.6c-1.2,0-2.1,1-2.1,2.1c0,1.2,1,2.1,2.1,2.1h4.1c5.9,14.5,20.2,24.7,36.8,24.7s30.9-10.3,36.8-24.7h20.7c8.3,0,15-6.7,15-15
				C-111.9-167.2-118.7-173.9-126.9-173.9z M-241.9-148.3H-252c-0.4,0-0.7-0.3-0.7-0.7v-7.9h3.7c1.2,0,2.1-1,2.1-2.1
				c0-1.2-1-2.1-2.1-2.1h-3.7v-7.9c0-0.4,0.3-0.7,0.7-0.7h10.1V-148.3z M-184.5-123.6c-19.3,0-35-15.4-35.5-34.5c0-0.6,0-1.2,0-1.8
				c0.5-19.1,16.3-34.6,35.5-34.6s35,15.4,35.5,34.5c0,0.6,0,1.2,0,1.8C-149.4-138.9-165.2-123.6-184.5-123.6z"/>
			<path class="st5" d="M-184.5-180.3c-1.2,0-2.1,1-2.1,2.1v19.1c0,1.2,1,2.1,2.1,2.1h13.5c1.2,0,2.1-1,2.1-2.1c0-1.2-1-2.1-2.1-2.1
				h-11.4v-17.1C-182.3-179.3-183.3-180.3-184.5-180.3z"/>
			<path class="st5" d="M-133-156.9h0.4c1.2,0,2.1-1,2.1-2.1c0-1.2-1-2.1-2.1-2.1h-0.4c-1.2,0-2.1,1-2.1,2.1
				C-135.1-157.9-134.1-156.9-133-156.9z"/>
		</g>
	</g>
	<g class="st0">
		<path class="st6" d="M412.7-52c3.8-0.3,7.6-0.6,11.4-0.7c48.7-2.1,108.7-35.6,110.7-96.3c1.2-35.4-0.5-74.9-22.3-100.1
			c-13.6-15.8-33.1-22.9-52.1-26.9c-17.4-3.6-35.4-4.8-52.6-0.3c-45,11.7-75.4,58.4-101.7,101.9c-9.9,16.4-20.2,33.9-20.9,53.8
			c-1.2,31.6,23,58.4,49.6,67C359.5-45.5,387-49.9,412.7-52z"/>
		<g class="st4">
			<g>
				<g>
					<path class="st5" d="M474.8-154.3c-0.1-1.1-1.1-2-2.2-1.9c-1.1,0.1-2,1.1-1.9,2.2c0.1,1.2,0.1,2.4,0.1,3.6
						c0,25.3-20.7,46.1-46.2,46.1s-46.1-20.7-46.1-46.2c0-8.6,2.4-17,6.9-24.2c0.2-0.3,0.3-0.5,0.3-0.8l3.4-28.5l19.7,9.8
						c0.5,0.2,1,0.3,1.6,0.1c4.6-1.5,9.4-2.3,14.3-2.3s9.7,0.8,14.3,2.3c0.5,0.2,1.1,0.1,1.6-0.1l19.7-9.8l3.4,28.5
						c0,0.3,0.1,0.6,0.3,0.8c2.3,3.7,4.1,7.8,5.3,12c0.3,1.1,1.4,1.7,2.5,1.4c1.1-0.3,1.7-1.4,1.4-2.5c-1.2-4.5-3.1-8.7-5.5-12.7
						l-3.7-31c-0.2-1.4-1.7-2.2-3-1.6l-21.5,10.8c-4.8-1.5-9.8-2.2-14.8-2.2s-10,0.7-14.8,2.2l-21.5-10.8c-1.3-0.6-2.8,0.2-3,1.6
						l-3.7,31c-4.8,7.9-7.3,16.9-7.3,26c0,8.1,1.9,15.8,5.4,22.6c0,0.1,0.1,0.2,0.1,0.4l10,25.8c0.3,0.8,1.1,1.3,1.9,1.3h6.6
						c0.9,0,1.7-0.6,2-1.5l1.3-4.2c6.9,3.6,14.7,5.6,23.1,5.6c8.3,0,16.1-2,23.1-5.6l1.3,4.2c0.3,0.9,1.1,1.5,2,1.5h6.6
						c0.9,0,1.6-0.5,1.9-1.3l10.1-26.1c0-0.1,0.1-0.2,0.1-0.3c3.4-6.8,5.3-14.4,5.3-22.4C474.9-151.8,474.9-153.1,474.8-154.3z
						 M396.9-104.4h-3.6l-4.1-10.7c2.7,2.7,5.6,5.1,8.9,7.1L396.9-104.4z M456.1-104.4h-3.6l-1.1-3.6c3.2-2,6.2-4.4,8.9-7.1
						L456.1-104.4z"/>
				</g>
			</g>
			<g>
				<g>
					<path class="st5" d="M460.2-183.2l-1.7-14.3c-0.2-1.4-1.7-2.2-3-1.6l-11.8,5.9c-1.4,0.7-1.5,2.7-0.2,3.6l13.5,8.4
						c0.3,0.2,0.7,0.3,1.1,0.3C459.4-180.9,460.4-182,460.2-183.2z M448.9-191.2l5.9-3l0.8,7.2L448.9-191.2z"/>
				</g>
			</g>
			<g>
				<g>
					<path class="st5" d="M405.6-193.2l-11.8-5.9c-1.3-0.6-2.8,0.2-3,1.6l-1.7,14.4c-0.2,1.7,1.7,2.9,3.1,2l13.5-8.4
						c0.6-0.4,1-1.1,1-1.8C406.7-192.2,406.3-192.9,405.6-193.2z M393.7-186.9l0.8-7.2l5.9,3L393.7-186.9z"/>
				</g>
			</g>
			<g>
				<g>
					<path class="st5" d="M444.4-174.3c-3.5,0-6.4,2.9-6.4,6.4c0,1.1,0.9,2.1,2.1,2.1s2.1-0.9,2.1-2.1c0-1.3,1-2.3,2.3-2.3
						s2.3,1,2.3,2.3c0,1.1,0.9,2.1,2.1,2.1c1.1,0,2.1-0.9,2.1-2.1C450.8-171.5,447.9-174.3,444.4-174.3z"/>
				</g>
			</g>
			<g>
				<g>
					<path class="st5" d="M405-174.3c-3.5,0-6.4,2.9-6.4,6.4c0,1.1,0.9,2.1,2.1,2.1s2.1-0.9,2.1-2.1c0-1.3,1-2.3,2.3-2.3
						s2.3,1,2.3,2.3c0,1.1,0.9,2.1,2.1,2.1s2.1-0.9,2.1-2.1C411.4-171.5,408.5-174.3,405-174.3z"/>
				</g>
			</g>
			<g>
				<g>
					<path class="st5" d="M424.7-165.7c-8.4,0-15.2,5.3-15.2,11.9c0,6.6,6.8,11.9,15.2,11.9s15.2-5.3,15.2-11.9
						C439.9-160.4,433.1-165.7,424.7-165.7z M424.7-146c-6.1,0-11.1-3.5-11.1-7.8s5-7.8,11.1-7.8s11.1,3.5,11.1,7.8
						S430.8-146,424.7-146z"/>
				</g>
			</g>
			<g>
				<g>
					<path class="st5" d="M417.1-154.4c-0.9,0.5-1.2,1.6-0.8,2.5c0.3,0.8,1.1,1.3,2,1.3c0.8,0,1.6-0.6,1.9-1.4
						C420.6-153.8,418.6-155.4,417.1-154.4z"/>
				</g>
			</g>
			<g>
				<g>
					<path class="st5" d="M432.6-154.3c-0.7-0.6-1.7-0.6-2.4-0.1c-0.8,0.5-1.1,1.6-0.8,2.5c0.3,0.8,1.1,1.3,1.9,1.3
						c0.8,0,1.6-0.6,1.9-1.4C433.5-152.8,433.2-153.7,432.6-154.3z"/>
				</g>
			</g>
			<g>
				<g>
					<path class="st5" d="M446.1-142.4c-0.6-0.9-1.9-1.2-2.9-0.5c-5.5,3.7-11.9,5.7-18.6,5.7c-6.7,0-13.1-2-18.6-5.7
						c-0.9-0.6-2.2-0.4-2.9,0.5c-0.6,0.9-0.4,2.2,0.5,2.9c6.2,4.2,13.4,6.4,20.9,6.4s14.7-2.2,20.9-6.4
						C446.5-140.1,446.7-141.4,446.1-142.4z"/>
				</g>
			</g>
			<g>
				<g>
					<path class="st5" d="M424.7-239.2c-10.4,0-18.9,8.5-18.9,18.8c0,10.4,8.4,18.9,18.9,18.9c10.4,0,18.9-8.5,18.9-18.8
						C443.6-230.7,435.1-239.2,424.7-239.2z M424.7-205.6c-8.2,0-14.8-6.7-14.8-14.8s6.7-14.8,14.8-14.8c8.2,0,14.8,6.7,14.8,14.8
						S432.9-205.6,424.7-205.6z"/>
				</g>
			</g>
			<g>
				<g>
					<path class="st5" d="M488.2-176.5h-2.3v-2.3c0-1.1-0.9-2.1-2.1-2.1s-2.1,0.9-2.1,2.1v2.3h-2.2c-1.1,0-2.1,0.9-2.1,2.1
						c0,1.1,0.9,2.1,2.1,2.1h2.3v2.3c0,1.1,0.9,2.1,2.1,2.1s2.1-0.9,2.1-2.1v-2.3h2.3c1.1,0,2.1-0.9,2.1-2.1
						C490.3-175.6,489.4-176.5,488.2-176.5z"/>
				</g>
			</g>
			<g>
				<g>
					<path class="st5" d="M461.9-231.2h-2.3v-2.3c0-1.1-0.9-2.1-2.1-2.1s-2.1,0.9-2.1,2.1v2.3h-2.3c-1.1,0-2.1,0.9-2.1,2.1
						c0,1.2,0.9,2.1,2.1,2.1h2.3v2.3c0,1.1,0.9,2.1,2.1,2.1s2.1-0.9,2.1-2.1v-2.3h2.3c1.1,0,2.1-0.9,2.1-2.1
						C464-230.3,463.1-231.2,461.9-231.2z"/>
				</g>
			</g>
			<g>
				<g>
					<path class="st5" d="M369.9-189.7h-2.3v-2.3c0-1.1-0.9-2.1-2.1-2.1s-2.1,0.9-2.1,2.1v2.3h-2.3c-1.1,0-2.1,0.9-2.1,2.1
						c0,1.1,0.9,2.1,2.1,2.1h2.3v2.3c0,1.1,0.9,2.1,2.1,2.1s2.1-0.9,2.1-2.1v-2.3h2.3c1.1,0,2.1-0.9,2.1-2.1
						C372-188.8,371-189.7,369.9-189.7z"/>
				</g>
			</g>
			<g>
				<g>
					<path class="st7" d="M424.7-229.7c-5.2,0-9.4,4.2-9.4,9.4s4.2,9.4,9.4,9.4s9.4-4.2,9.4-9.4
						C434.1-225.5,429.8-229.7,424.7-229.7z M424.7-213.1c-4,0-7.3-3.3-7.3-7.3c0-4,3.3-7.3,7.3-7.3s7.3,3.3,7.3,7.3
						C432-216.4,428.7-213.1,424.7-213.1z"/>
				</g>
			</g>
		</g>
	</g>
	<g class="st0">
		<path class="st6" d="M379,211.1c-9.9-6.6-19.1-14.4-28.2-22.1c-12.1-10.4-24.6-21.5-30.2-37c-11.3-31.3,1.2-88.3,21.9-112.7
			C356,23.4,384,12.4,402.8,5.9c22-7.8,46-9.3,68.6-3.8c36,8.8,68,35.3,84.9,70.4c5.9,12.3,10.2,25.8,10,39.7
			c-0.3,18-7.9,35.1-17.5,49.9c-16.8,26-40.4,47.4-68,58.6c-27.6,11.2-59.3,11.7-86.4-0.9C389.1,217.4,384,214.4,379,211.1z"/>
		<g class="st4">
			<path class="st5" d="M486.9,61.6h-9.3v-6.7c0-3.9-3.2-7-7-7c-3.9,0-7,3.2-7,7v6.7h-32.2c-1,0-1.9,0.8-1.9,1.9
				c0,1,0.8,1.9,1.9,1.9h32.1v4.2c0,3.9,3.2,7,7,7c3.9,0,7-3.2,7-7v-4.2h9.2c5.6,0,10.2,4.6,10.2,10.2v14.6H383.4V75.6
				c0-5.6,4.6-10.2,10.2-10.2h9.2v4.2c0,3.9,3.2,7,7,7c3.9,0,7-3.2,7-7v-4.2h7.1c1,0,1.9-0.8,1.9-1.9c0-1-0.8-1.9-1.9-1.9h-7.1v-6.7
				c0-3.9-3.2-7-7-7s-7,3.2-7,7v6.7h-9.3c-7.6,0-13.9,6.2-13.9,13.9v82.8c0,7.7,6.2,13.9,13.9,13.9c0,0,0,0,0.1,0s0,0,0.1,0h8
				c1,0,1.9-0.8,1.9-1.9c0-1-0.8-1.9-1.9-1.9h-8c0,0,0,0-0.1,0c0,0,0,0-0.1,0c-0.4,0-0.9,0-1.3-0.1c0-0.1,0-0.2,0-0.3V93.7H488v73.9
				c0,0.2,0,0.4,0.1,0.5c-0.4,0.1-0.9,0.1-1.3,0.1h-77.7c-1,0-1.9,0.8-1.9,1.9c0,1,0.8,1.9,1.9,1.9h78.4c0.1,0,0.3,0,0.4,0
				c7.2-0.5,12.9-6.5,12.9-13.9V75.4C500.7,67.9,494.5,61.6,486.9,61.6z M473.9,69.5c0,1.8-1.5,3.3-3.3,3.3s-3.3-1.5-3.3-3.3V54.8
				c0-1.8,1.5-3.3,3.3-3.3s3.3,1.5,3.3,3.3V69.5z M406.5,54.9c0-1.8,1.5-3.3,3.3-3.3s3.3,1.5,3.3,3.3v14.7c0,1.8-1.5,3.3-3.3,3.3
				s-3.3-1.5-3.3-3.3V54.9z M388.6,167c-3.1-1.7-5.2-5.1-5.2-8.8V93.7h5.2V167z M491.8,167V93.7h5.2v64.4
				C497,161.9,494.9,165.2,491.8,167z"/>
			<path class="st5" d="M428.1,125.8c-0.6,0.2-1.1,0.6-1.3,1.2s-0.1,1.3,0.3,1.8l4.3,5.4l-0.4,6.9c0,0.6,0.3,1.2,0.8,1.6
				c0.3,0.2,0.7,0.4,1.1,0.4c0.2,0,0.5,0,0.7-0.1l6.4-2.5l6.4,2.5c0.6,0.2,1.3,0.1,1.8-0.2c0.5-0.4,0.8-1,0.8-1.6l-0.4-6.9l4.3-5.4
				c0.4-0.5,0.5-1.2,0.3-1.8c-0.2-0.6-0.7-1.1-1.3-1.2l-6.7-1.8l-3.8-5.8c-0.3-0.5-0.9-0.8-1.6-0.8s-1.2,0.3-1.6,0.8l-3.8,5.8
				L428.1,125.8z M437.5,126.6l2.6-4l2.6,4c0.3,0.4,0.6,0.7,1.1,0.8l4.6,1.2l-3,3.7c-0.3,0.4-0.4,0.8-0.4,1.3l0.2,4.7l-4.4-1.7
				c-0.2-0.1-0.4-0.1-0.7-0.1s-0.5,0-0.7,0.1l-4.4,1.7l0.2-4.7c0-0.5-0.1-0.9-0.4-1.3l-3-3.7l4.6-1.2
				C436.9,127.3,437.3,127,437.5,126.6z"/>
			<path class="st5" d="M440,114.3c1,0,1.9-0.8,1.9-1.9v-7.9c0-1-0.8-1.9-1.9-1.9c-1,0-1.9,0.8-1.9,1.9v7.9
				C438.1,113.5,439,114.3,440,114.3z"/>
			<path class="st5" d="M457.5,110.9l-5.6,5.6c-0.7,0.7-0.7,1.9,0,2.6c0.4,0.4,0.8,0.5,1.3,0.5s1-0.2,1.3-0.5l5.6-5.6
				c0.7-0.7,0.7-1.9,0-2.6C459.4,110.2,458.2,110.2,457.5,110.9z"/>
			<path class="st5" d="M468.6,130.8c0-1-0.8-1.9-1.9-1.9h-7.9c-1,0-1.9,0.8-1.9,1.9c0,1,0.8,1.9,1.9,1.9h7.9
				C467.8,132.7,468.6,131.8,468.6,130.8z"/>
			<path class="st5" d="M452.2,142.8c-0.7,0.7-0.7,1.9,0,2.6l5.6,5.6c0.4,0.4,0.8,0.5,1.3,0.5s1-0.2,1.3-0.5c0.7-0.7,0.7-1.9,0-2.6
				l-5.6-5.6C454.1,142,453,142,452.2,142.8z"/>
			<path class="st5" d="M438.5,149.7v7.9c0,1,0.8,1.9,1.9,1.9c1,0,1.9-0.8,1.9-1.9v-7.9c0-1-0.8-1.9-1.9-1.9
				C439.4,147.8,438.5,148.7,438.5,149.7z"/>
			<path class="st5" d="M425.8,143l-5.6,5.6c-0.7,0.7-0.7,1.9,0,2.6c0.4,0.4,0.8,0.5,1.3,0.5s1-0.2,1.3-0.5l5.6-5.6
				c0.7-0.7,0.7-1.9,0-2.6C427.7,142.3,426.5,142.3,425.8,143z"/>
			<path class="st5" d="M411.8,131.2c0,1,0.8,1.9,1.9,1.9h7.9c1,0,1.9-0.8,1.9-1.9c0-1-0.8-1.9-1.9-1.9h-7.9
				C412.6,129.4,411.8,130.2,411.8,131.2z"/>
			<path class="st5" d="M422.6,111.2c-0.7-0.7-1.9-0.7-2.6,0c-0.7,0.7-0.7,1.9,0,2.6l5.6,5.6c0.4,0.4,0.8,0.5,1.3,0.5s1-0.2,1.3-0.5
				c0.7-0.7,0.7-1.9,0-2.6L422.6,111.2z"/>
		</g>
	</g>
	<g class="st0">
		<path class="st6" d="M-0.1,104.7c0.2-4.9,0.7-9.8,1.7-14.9C19.9-3.5,138-17.8,202.7,19c12.5,7.1,24.2,16.4,32.9,28.6
			c23.7,33.4,11.8,73.4,6.9,111.5c-1.5,12-3.1,24.1-8.3,34.8c-8,16.4-23.6,26.9-39.9,31.9c-16.3,4.9-33.5,4.9-50.4,4.9
			c-16.3,0-32.9-0.1-48.4-5.6C49.9,208.9-2,161.7-0.1,104.7z"/>
		<g class="st4">
			<path class="st5" d="M194.7,91.9c-1-0.6-2.1-0.9-3.2-1c-4.4-0.5-8.4,2.3-9.5,6.5l-4.7,22.8l-0.8,4c-0.5,2.3-1.8,4.3-3.6,5.6
				l-14.7,10.6l0,0l2.5-10.5c0.6-2.5,0.2-5-1.1-7.2c-1.3-2.2-3.3-3.8-5.8-4.5c-5-1.4-10.3,1.3-12,6.3l-8.7,25.9
				c-0.1,0.2-0.2,0.5-0.2,0.7c-0.9,3.6,0,7.3,2.4,10l0,0l-4.2,7.5l-4.2-7.5l0,0c2.4-2.7,3.3-6.4,2.4-10c-0.1-0.2-0.1-0.5-0.2-0.7
				l-8.7-25.9c-1.7-5-6.9-7.7-12-6.3c-2.4,0.7-4.5,2.3-5.8,4.5c-1.3,2.2-1.7,4.7-1.1,7.2l2.5,10.5l0,0l-14.5-10.7
				c-1.9-1.4-3.2-3.4-3.6-5.6l-0.8-4l-4.7-22.8c-1.1-4.2-5.2-7-9.5-6.5c-1.2,0.1-2.2,0.5-3.2,1c-3.1,1.7-4.8,5.1-4.5,8.6l3.6,35.8
				c0.3,3.4,2.1,6.6,4.8,8.7l17.1,13.7c0.8,0.6,1.9,0.5,2.6-0.3c0.6-0.8,0.5-1.9-0.3-2.6L73.9,142c-1.9-1.5-3.2-3.8-3.4-6.3
				l-3.6-35.8c-0.2-2,0.8-4,2.6-5c0.6-0.3,1.2-0.5,1.9-0.6c2.6-0.3,5.1,1.5,5.6,4.1l5.4,26.3c0.6,3.2,2.5,6,5.1,7.9l18.7,13.5
				c0.6,0.4,1.5,0.5,2.1,0c0.6-0.4,0.9-1.2,0.8-1.9l-3.7-15.3c-0.4-1.5-0.1-3.1,0.7-4.5c0.8-1.4,2.1-2.4,3.6-2.8
				c3.2-0.9,6.4,0.8,7.5,3.9l8.7,25.9c0.1,0.2,0.1,0.3,0.1,0.5c0.8,3-0.5,6.2-3.1,7.9c-0.1,0.1-0.3,0.2-0.4,0.2l0,0l1.8,3.2l4.3,7.6
				c0,0,0,0,0,0.1l2.2,3.9h-21.7v0.1l-4.8-8.7c-0.1-0.2-0.3-0.4-0.5-0.5l-7-5.6c-0.8-0.6-1.9-0.5-2.6,0.3c-0.6,0.8-0.5,1.9,0.3,2.6
				l6.7,5.4l4.7,8.4c0.4,0.7,1.3,1.1,2.1,0.9c0.1,0,0.2-0.1,0.3-0.1h46.3c0.1,0,0.2,0.1,0.3,0.1c0.8,0.2,1.6-0.1,2.1-0.9l4.7-8.4
				l12.4-9.9l17.1-13.7c2.7-2.1,4.4-5.3,4.8-8.7l3.6-35.8C199.5,96.9,197.8,93.6,194.7,91.9z M195.5,100.1l-3.6,35.8
				c-0.2,2.4-1.5,4.7-3.4,6.3l-17.1,13.7l-5.5,4.4c-0.1,0-0.2,0.1-0.2,0.2c0,0-2.6,2.1-4.8,3.9l0,0l0,0c-1.4,1.2-2.6,2.2-2.7,2.2
				l-4.8,8.7v-0.1h-19.3l-1.1-2.3l1.6-3l3.6-6.4l1.8-3.2l0,0c-0.1-0.1-0.3-0.2-0.4-0.2c-2.6-1.7-3.9-4.9-3.1-7.9
				c0-0.2,0.1-0.3,0.1-0.5l8.7-25.9c1-3.1,4.3-4.8,7.5-3.9c1.5,0.4,2.8,1.4,3.6,2.8c0.8,1.4,1,3,0.7,4.5l-3.7,15.3
				c-0.2,0.7,0.1,1.5,0.8,1.9c0.6,0.4,1.5,0.4,2.1,0l18.7-13.5c2.6-1.9,4.4-4.7,5.1-7.9l5.4-26.3c0.5-2.6,3-4.4,5.6-4.1
				c0.7,0.1,1.3,0.3,1.9,0.6C194.7,96.1,195.7,98,195.5,100.1z"/>
			<path class="st5" d="M127.9,86.3c0.4,0.3,0.8,0.6,1.2,0.7v7.2c0,1,0.8,1.9,1.9,1.9c1,0,1.9-0.8,1.9-1.9V87
				c0.4-0.2,0.8-0.4,1.2-0.7c5.8-5,9.1-12.3,9.1-19.8c0-2.1-0.3-4.2-0.7-6.2c-0.2-1-1.3-1.6-2.3-1.4c-1,0.2-1.6,1.3-1.4,2.3
				c0.4,1.7,0.6,3.5,0.6,5.3c0,6-2.4,11.7-6.6,15.9V62.7c0-1-0.8-1.9-1.9-1.9c-1,0-1.9,0.8-1.9,1.9v19.6c-4.2-4.2-6.6-9.9-6.6-15.9
				c0-6.9,3.1-13.3,8.4-17.6c1.8,1.4,3.3,3.1,4.6,5c0.6,0.9,1.8,1.1,2.6,0.5c0.9-0.6,1.1-1.8,0.5-2.6c-1.5-2.2-3.3-4.2-5.4-5.9
				c-1.4-1.1-3.3-1.1-4.7,0c-6.3,5-9.9,12.5-9.9,20.4C118.8,74.1,122.1,81.4,127.9,86.3z"/>
			<path class="st5" d="M145.3,104.5c0.5,0,1-0.2,1.3-0.6l5.1-5.1c0.4,0.2,0.9,0.3,1.4,0.3c0.7,0,1.3,0.1,2,0.1
				c6.9,0,13.6-2.7,18.6-7.7c5.7-5.7,8.4-13.5,7.5-21.4c-0.2-1.7-1.5-3.1-3.3-3.3c-8-0.9-15.8,1.8-21.5,7.5
				c-5.4,5.4-8.2,12.9-7.6,20.4c0,0.5,0.1,0.9,0.3,1.4l-5.1,5.1c-0.7,0.7-0.7,1.9,0,2.7C144.4,104.3,144.8,104.5,145.3,104.5z
				 M159,77c4.3-4.3,9.9-6.6,15.9-6.6c0.8,0,1.7,0,2.5,0.1c0.8,6.8-1.6,13.5-6.4,18.3c-4.2,4.2-9.9,6.6-15.9,6.6l14-14
				c0.7-0.7,0.7-1.9,0-2.7c-0.7-0.7-1.9-0.7-2.7,0l-14,14C152.5,86.9,154.8,81.3,159,77z"/>
			<path class="st5" d="M88.7,91.6c4.9,4.9,11.6,7.7,18.6,7.7c0.7,0,1.3,0,2-0.1c0.5,0,0.9-0.1,1.4-0.3l5.1,5.1
				c0.4,0.4,0.9,0.6,1.3,0.6c0.5,0,1-0.2,1.3-0.6c0.7-0.7,0.7-1.9,0-2.7l-5.1-5.1c0.2-0.4,0.3-0.9,0.3-1.4
				c0.6-7.6-2.2-15.1-7.6-20.4c-5.7-5.7-13.5-8.4-21.5-7.5c-1.7,0.2-3.1,1.5-3.3,3.3C80.2,78.1,83,85.9,88.7,91.6z M84.9,70.6
				c6.8-0.8,13.5,1.6,18.4,6.4c4.2,4.2,6.6,9.9,6.6,15.9l-14-14c-0.7-0.7-1.9-0.7-2.7,0c-0.7,0.7-0.7,1.9,0,2.7l14,14
				c-5.9,0-11.6-2.4-15.9-6.6C86.5,84,84.1,77.4,84.9,70.6z"/>
		</g>
	</g>
	<g>
		<path class="st8" d="M59.3,23.2c17.3-10,34.2-9.7,52.4-14.3c18.4-4.6,29.8-11.4,49.9-7.1c71.2,15.3,106.3,99,79.2,168.3
			c-12.9,33.1-43.3,59.4-77.3,60.6c-16.9,0.6-33.5-4.8-49.3-11.1c-26.7-10.7-52.3-24.3-77.8-38c-9.7-5.2-19.7-10.7-26.7-19.5
			c-15.2-19.4-10.5-48.9-0.2-71.7C20.7,65.8,35.8,36.8,59.3,23.2z"/>
		<g>
			<path class="st5" d="M194,179.6L180.2,137c0.8-0.5,1.5-1.1,2-1.8c2-2.5,2.2-5.8,0.7-8.6c-1-1.7-0.5-3.8,1.1-4.9
				c2.6-1.8,3.8-4.9,3.1-8c-0.7-3.1-3.2-5.4-6.3-5.9c-1.9-0.3-3.3-2-3.1-3.9c0.2-3.2-1.5-6.1-4.3-7.5c-2.9-1.4-6.2-0.9-8.5,1.3
				c-1.4,1.3-3.6,1.3-5,0c-2.3-2.1-5.7-2.7-8.5-1.3c-2.9,1.4-4.5,4.3-4.3,7.5c0.1,1.9-1.2,3.6-3.1,3.9c-3.1,0.5-5.6,2.8-6.3,5.9
				c-0.7,3.1,0.5,6.2,3.1,8c0.8,0.5,1.3,1.4,1.5,2.3H74.8c-0.4,0-0.7-0.3-0.7-0.7V59c0-0.4,0.3-0.7,0.7-0.7h102.5
				c0.4,0,0.7,0.3,0.7,0.7v37.9c0,1.1,0.9,2,2,2s2-0.9,2-2V59c0-2.6-2.1-4.6-4.6-4.6H74.8c-2.6,0-4.6,2.1-4.6,4.6v64.3
				c0,2.6,2.1,4.6,4.6,4.6h66.5c-0.8,2.4-0.4,5.2,1.3,7.2c2,2.5,5.2,3.5,8.2,2.5c1.8-0.6,3.8,0.4,4.5,2.2c1.2,2.9,3.9,4.8,7.1,4.8
				l-13.2,40.7c0,0,0,0.1-0.1,0.1s-0.1,0-0.2-0.1l-5-5.5c-0.5-0.5-1.2-0.8-1.9-0.6l-7.2,1.5c0,0-0.1,0-0.2-0.1c-0.1-0.1,0-0.1,0-0.2
				l11.5-35.5c0.3-1-0.2-2.2-1.3-2.5c-1-0.3-2.2,0.2-2.5,1.3l-11.5,35.5c-0.5,1.4-0.1,2.9,0.9,4.1c1,1.1,2.5,1.6,3.9,1.3l6.1-1.3
				l4.2,4.6c0.8,0.9,1.9,1.4,3.1,1.4c0.3,0,0.6,0,0.9-0.1c1.5-0.3,2.6-1.4,3.1-2.8l14.1-43.5c1.1-0.8,2-2,2.5-3.3
				c0.7-1.8,2.7-2.7,4.5-2.2c0.8,0.2,1.6,0.3,2.4,0.3l13.8,42.7c0,0,0,0.1,0,0.2c-0.1,0.1-0.1,0.1-0.2,0.1l-7.2-1.5
				c-0.7-0.1-1.4,0.1-1.9,0.6l-5,5.5c0,0-0.1,0.1-0.2,0.1c-0.1,0-0.1-0.1-0.1-0.1l-7.9-24.3c-0.3-1-1.5-1.6-2.5-1.3
				c-1,0.3-1.6,1.5-1.3,2.5l7.9,24.3c0.5,1.4,1.6,2.5,3.1,2.8c0.3,0.1,0.6,0.1,0.9,0.1c1.2,0,2.3-0.5,3.1-1.4l4.2-4.6l6.1,1.3
				c1.5,0.3,2.9-0.2,3.9-1.3C194.2,182.5,194.5,181,194,179.6z M165.8,138.5c-0.7,1.7-2.2,2.3-3.4,2.3s-2.8-0.6-3.4-2.3
				c-1.2-3-4.1-4.8-7.2-4.8c-0.7,0-1.5,0.1-2.2,0.3c-1.8,0.5-3.2-0.3-4-1.2c-0.8-0.9-1.2-2.5-0.3-4.1c2-3.4,1-7.9-2.3-10.1
				c-1.5-1-1.8-2.7-1.5-3.9c0.3-1.2,1.2-2.5,3-2.8c3.9-0.6,6.8-4.2,6.5-8.1c-0.1-1.8,1-3.1,2.1-3.6c1.1-0.5,2.7-0.6,4.1,0.6
				c2.9,2.7,7.5,2.7,10.4,0c1.4-1.3,3-1.1,4.1-0.6c1.1,0.5,2.2,1.7,2.1,3.6c-0.3,4,2.6,7.5,6.5,8.1c1.8,0.3,2.8,1.6,3,2.8
				c0.3,1.2,0,2.8-1.5,3.9c-3.3,2.2-4.3,6.7-2.3,10.1c0.9,1.6,0.4,3.2-0.3,4.1c-0.8,0.9-2.2,1.8-4,1.2
				C171.4,132.8,167.3,134.8,165.8,138.5z"/>
			<path class="st5" d="M84,64.2c-2,0-3.6,1.6-3.6,3.6v46.7c0,2,1.6,3.6,3.6,3.6h43.4c2,0,3.6-1.6,3.6-3.6V67.8c0-2-1.6-3.6-3.6-3.6
				H84z M127,68.2v32.7c-2.1-1.9-4.8-3-7.8-3c2.4-3,3.7-6.7,3.7-10.6c0-9.5-7.7-17.2-17.2-17.2s-17.2,7.7-17.2,17.2
				c0,3.9,1.3,7.6,3.7,10.6c-3,0-5.7,1.2-7.8,3V68.2H127z M127,114H84.4v-4.3c0-4.4,3.6-7.9,7.9-7.9h4.8c0.9,0,1.6-0.6,1.9-1.4
				s-0.1-1.7-0.8-2.2c-3.7-2.5-5.8-6.6-5.8-11c0-7.3,5.9-13.2,13.2-13.2c7.3,0,13.2,5.9,13.2,13.2c0,4.4-2.2,8.5-5.8,11
				c-0.7,0.5-1,1.4-0.8,2.2c0.3,0.8,1,1.4,1.9,1.4h4.8c4.4,0,7.9,3.6,7.9,7.9v4.3H127z"/>
			<path class="st5" d="M168.1,73.3h-27.3c-1.1,0-2,0.9-2,2s0.9,2,2,2h27.3c1.1,0,2-0.9,2-2S169.2,73.3,168.1,73.3z"/>
			<path class="st5" d="M168.1,82.6h-27.3c-1.1,0-2,0.9-2,2c0,1.1,0.9,2,2,2h27.3c1.1,0,2-0.9,2-2C170.1,83.5,169.2,82.6,168.1,82.6
				z"/>
		</g>
	</g>
</g>
</svg>
