<?xml version="1.0" encoding="utf-8"?>
<!-- Generator: Adobe Illustrator 25.2.3, SVG Export Plug-In . SVG Version: 6.00 Build 0)  -->
<svg version="1.1" id="Ebene_1" xmlns="http://www.w3.org/2000/svg" xmlns:xlink="http://www.w3.org/1999/xlink" x="0px" y="0px"
	 viewBox="0 0 250 231" style="enable-background:new 0 0 250 231;" xml:space="preserve">
<style type="text/css">
	.st0{display:none;}
	.st1{display:inline;fill:#F9F0ED;}
	.st2{display:inline;fill:#F5F4EE;}
	.st3{display:inline;fill:#FB635D;}
	.st4{fill:#F5F4EE;}
	.st5{fill:#FB635D;}
	.st6{display:inline;fill:#FFFFFF;}
	.st7{display:inline;}
	.st8{fill:#FB635D;stroke:#FB635D;stroke-width:2;stroke-miterlimit:10;}
</style>
<g id="Background" class="st0">
	<rect id="Background_4_" x="-94.8" y="-176.4" class="st1" width="1200" height="1200"/>
</g>
<g id="Graphic_Elements">
	<g class="st0">
		<path class="st2" d="M546,81c-1.6-3.6-3.4-7.3-5.6-11.2c-12.3-21.9-34.6-36.6-58-45.6s-48.4-13.1-72.9-19
			C399.1,2.7,388.6-0.1,378,0c-22.4,0.2-43.4,13.5-56.3,31.7s-18.4,40.9-19.3,63.2c-0.8,20,2.2,40.9,13.4,57.5
			c6,8.9,14.1,16.1,22.1,23.2c12.5,11.1,25,22.2,37.5,33.3c6.7,6,13.6,12.1,21.6,16.1c26.4,13.4,66.6,2.6,87.5-16
			c5-4.4,10.3-8.5,15.6-12.5c10.3-7.6,20.9-15.1,29.2-25.1c7-8.5,12.4-18.1,16.1-28.5C554,119.5,554.9,101.7,546,81z"/>
		<path class="st3" d="M491.8,166.5v-39.7c0-1.9-1.1-3.6-2.9-4.4l-19.8-8.1c-2.4-1-5.1,0.2-6,2.5l-0.7,1.7c-5.3-2-10.6-3.6-16-4.7
			c-7.1-1.4-9.6-1-22.1,1.8h-0.1c-4.4,1-6.2,2.7-20.7,12.6c-3.6,2.4-4.2,5.6-3.8,8.2l-1.7-0.1c-0.6-0.6-1.2-1.1-1.9-1.5l-16.9-10
			c-4.1-2.5-9.5-1.1-11.9,3c-1.4,2.3-1.6,5-0.7,7.4c-2.4,1.1-4.1,3.1-4.8,5.9c0,0,0,0,0,0.1c-1.4,7.2,5.4,10.3,7.7,10.7
			c44.6,9,40.9,8.2,41.7,8.3c1,0.1,2-0.6,2.1-1.7c0.1-1-0.6-2-1.7-2.1c-0.6-0.1-10.7-2.1-41.3-8.3c-1.1-0.3-5.6-1.8-4.7-6.2
			c0.8-3.4,3.7-4.1,7.1-3.6c0.1,0,28.6,2,28.7,2c2,2.6,5.3,3.8,8.8,2c4.5-2.2,15.1-7.4,15.2-7.4c0.9-0.5,1.3-1.6,0.9-2.6
			c-0.5-0.9-1.6-1.3-2.6-0.9c-0.1,0.1-10.7,5.3-15.2,7.5c-2.8,1.4-4.3-1.1-4.4-1.4l0,0l0,0c-0.3-0.6-2-3.8,1.5-6.1
			c14.3-9.8,15.9-11.2,19.5-12l0,0c12-2.6,14.2-3,20.5-1.7c5.1,1,10.2,2.5,15.3,4.5c-2.9,7-9.1,22.1-9.4,22.8l-2.1-0.9
			c-2.8-1.1-5.8-1.5-8.8-0.9c-2.8,0.5-5.1,1.2-8,3.3c-12.5,8.5-11.7,8.1-13.2,8.7c-1,0.4-1.4,1.6-0.9,2.5c0.4,1,1.6,1.4,2.5,0.9
			c1.8-0.8,1.1-0.4,13.7-9c3.9-2.6,8.9-3.8,13.2-2l2.1,0.9l-0.7,1.7c-1,2.4,0.2,5.1,2.5,6l34.4,14.1
			C488.9,171.3,491.8,169.4,491.8,166.5z M390.2,135.7c-0.3,0-19.6-1.4-19.9-1.4c-2.2-4.3,2.7-8.9,6.9-6.4L390.2,135.7z
			 M487.9,166.5c0,0.1-0.1,0.2-0.3,0.2l-34.4-14.1c-0.4-0.2-0.6-0.6-0.4-1.1c1.7-4,12.2-29.7,13.7-33.2c0.2-0.4,0.6-0.6,1.1-0.4
			l19.8,8.1c0.3,0.1,0.6,0.5,0.6,0.8v39.7H487.9z"/>
		<path class="st3" d="M378.6,95.8l-1.1,6.4c-0.4,2.4,2.1,4.3,4.4,3.2l5.9-3l5.9,3c2.2,1.1,4.8-0.7,4.4-3.2l-1.1-6.4l4.7-4.5
			c1.8-1.7,0.8-4.8-1.7-5.1l-6.6-0.9l-2.9-5.8c-1.1-2.2-4.3-2.2-5.4,0l-2.9,5.8l-6.6,0.9c-2.5,0.4-3.5,3.4-1.7,5.1L378.6,95.8z
			 M377.7,89.7l5.3-0.8c1-0.1,1.8-0.7,2.3-1.6l2.4-4.8l2.4,4.8c0.4,0.9,1.3,1.5,2.3,1.6l5.3,0.8l-3.8,3.6c-0.7,0.7-1.1,1.7-0.9,2.7
			l0.9,5.2l-4.8-2.5c-0.9-0.4-1.9-0.4-2.8,0l-4.8,2.5l0.9-5.2c0.2-1-0.2-2-0.9-2.7L377.7,89.7z"/>
		<path class="st3" d="M447.3,91.3l4.7,4.5l-1.1,6.4c-0.4,2.4,2.1,4.3,4.4,3.2l5.9-3l5.9,3c2.2,1.1,4.8-0.7,4.4-3.2l-1.1-6.4
			l4.7-4.5c1.8-1.7,0.8-4.8-1.7-5.1l-6.6-0.9l-2.9-5.8c-1.1-2.2-4.3-2.2-5.4,0l-2.9,5.8l-6.6,0.9C446.5,86.5,445.5,89.5,447.3,91.3z
			 M451.2,89.7l5.3-0.8c1-0.1,1.8-0.7,2.3-1.6l2.4-4.8l2.4,4.8c0.4,0.9,1.3,1.5,2.3,1.6l5.3,0.8l-3.8,3.6c-0.7,0.7-1.1,1.7-0.9,2.7
			l0.9,5.2l-4.8-2.5c-0.9-0.4-1.9-0.4-2.8,0l-4.8,2.5l0.9-5.2c0.2-1-0.2-2-0.9-2.7L451.2,89.7z"/>
		<path class="st3" d="M410.7,76.2l-4.9-4.7l11-1.6c1.2-0.2,2.2-0.9,2.8-2l4.9-9.8l4.9,9.8c0.5,1.1,1.6,1.8,2.8,2l11,1.6l-7.9,7.6
			c-0.9,0.8-1.3,2.1-1.1,3.3l1.9,10.7l-9.9-5.1c-1.1-0.5-2.3-0.5-3.4,0l-9.9,5.1l1.1-6.2c0.2-1-0.5-2-1.6-2.2c-1-0.2-2,0.5-2.2,1.6
			l-1.1,6.5c-0.5,3,2.6,5.3,5.3,3.9l10.1-5.2l10.1,5.2c2.7,1.4,5.9-0.9,5.3-3.9l-1.9-11l8.1-7.7c2.2-2.1,1-5.8-2-6.2l-11.2-1.6
			l-5-10c-1.4-2.7-5.2-2.7-6.6,0l-5,10l-11.2,1.6c-3,0.4-4.2,4.1-2,6.2l5.2,5c0.8,0.7,2,0.7,2.7-0.1C411.5,78.2,411.5,77,410.7,76.2
			z"/>
	</g>
	<g>
		<path class="st4" d="M241.9,163.3c-4.8,12.2-11.7,23.8-21.6,31.5c-12.2,9.6-27.7,12.4-42.4,16.1c-32.5,8-64.7,20.9-98,20
			S10.4,210.4,2,175.4C-7.3,137,18.9,100.5,30.9,63c4.3-13.5,7-27.9,14.5-39.5c33.3-51.5,90.1-4,129.6,8.4
			C231.1,49.4,266.9,99.1,241.9,163.3z"/>
		<g>
			<path class="st5" d="M126,91.4c-14,0-26.1,10-28.7,23.8c-0.2,1.2,0.5,2.3,1.7,2.5s2.3-0.5,2.5-1.7c2.2-11.8,12.5-20.3,24.5-20.3
				c13.7,0,24.9,11.2,24.9,24.9s-11.2,24.9-24.9,24.9c-12,0-22.3-8.5-24.5-20.3c-0.2-1.2-1.3-1.9-2.5-1.7c-1.2,0.2-1.9,1.3-1.7,2.5
				c2.6,13.8,14.6,23.8,28.7,23.8c16.1,0,29.1-13.1,29.1-29.1S142.1,91.4,126,91.4z"/>
			<path class="st5" d="M183.6,105.6h-5c-1.2,0-2.1,1-2.1,2.1c0,1.2,1,2.1,2.1,2.1h5c5.9,0,10.8,4.8,10.8,10.8
				c0,5.9-4.8,10.8-10.8,10.8h-19.2c0.9-3.2,1.4-6.6,1.5-10c0-0.5,0-1,0-1.6c-0.1-3.4-0.6-6.7-1.5-10h4.3c1.2,0,2.1-1,2.1-2.1
				c0-1.2-1-2.1-2.1-2.1h-5.8C157,91,142.7,80.8,126,80.8c-16.6,0-30.9,10.3-36.8,24.8H58.5c-2.7,0-5,2.2-5,5v20.1c0,2.7,2.2,5,5,5
				h16.8c1.2,0,2.1-1,2.1-2.1c0-1.2-1-2.1-2.1-2.1h-2.4V110h14.9c-0.9,3.2-1.4,6.6-1.5,10c0,0.5,0,1,0,1.6c0.1,3.4,0.6,6.7,1.5,10
				h-2.6c-1.2,0-2.1,1-2.1,2.1c0,1.2,1,2.1,2.1,2.1h4.1c5.9,14.5,20.2,24.8,36.8,24.8s30.9-10.3,36.8-24.8h20.7c8.3,0,15-6.7,15-15
				C198.6,112.3,191.8,105.6,183.6,105.6z M68.6,131.3H58.5c-0.4,0-0.7-0.3-0.7-0.7v-7.9h3.7c1.2,0,2.1-1,2.1-2.1
				c0-1.2-1-2.1-2.1-2.1h-3.7v-7.9c0-0.4,0.3-0.7,0.7-0.7h10.1V131.3z M126,156.1c-19.3,0-35-15.4-35.5-34.6c0-0.6,0-1.2,0-1.8
				C91,100.5,106.8,85,126,85s35,15.4,35.5,34.6c0,0.6,0,1.2,0,1.8C161.1,140.7,145.3,156.1,126,156.1z"/>
			<path class="st5" d="M126,99.2c-1.2,0-2.1,1-2.1,2.1v19.2c0,1.2,1,2.1,2.1,2.1h13.5c1.2,0,2.1-1,2.1-2.1c0-1.2-1-2.1-2.1-2.1
				h-11.4v-17.1C128.2,100.2,127.2,99.2,126,99.2z"/>
			<path class="st5" d="M177.5,122.7h0.4c1.2,0,2.1-1,2.1-2.1c0-1.2-1-2.1-2.1-2.1h-0.4c-1.2,0-2.1,1-2.1,2.1
				S176.4,122.7,177.5,122.7z"/>
		</g>
	</g>
	<g class="st0">
		<path class="st6" d="M723.2,227.9c3.8-0.3,7.6-0.6,11.4-0.7c48.7-2.1,108.7-35.7,110.7-96.6c1.2-35.5-0.5-75.1-22.3-100.4
			c-13.6-15.8-33.1-23-52.1-27c-17.4-3.6-35.4-4.8-52.6-0.3c-45,11.7-75.4,58.6-101.7,102.2c-9.9,16.4-20.2,34-20.9,54
			c-1.2,31.7,23,58.6,49.6,67.2C670,234.4,697.5,230,723.2,227.9z"/>
		<g class="st7">
			<g>
				<g>
					<path class="st5" d="M785.3,125.3c-0.1-1.1-1.1-2-2.2-1.9c-1.1,0.1-2,1.1-1.9,2.2c0.1,1.2,0.1,2.4,0.1,3.6
						c0,25.4-20.7,46.2-46.2,46.2S689,154.6,689,129.1c0-8.6,2.4-17,6.9-24.3c0.2-0.3,0.3-0.5,0.3-0.8l3.4-28.6l19.7,9.8
						c0.5,0.2,1,0.3,1.6,0.1c4.6-1.5,9.4-2.3,14.3-2.3s9.7,0.8,14.3,2.3c0.5,0.2,1.1,0.1,1.6-0.1l19.7-9.8l3.4,28.6
						c0,0.3,0.1,0.6,0.3,0.8c2.3,3.7,4.1,7.8,5.3,12c0.3,1.1,1.4,1.7,2.5,1.4c1.1-0.3,1.7-1.4,1.4-2.5c-1.2-4.5-3.1-8.7-5.5-12.7
						l-3.7-31.1c-0.2-1.4-1.7-2.2-3-1.6L750,81.1c-4.8-1.5-9.8-2.2-14.8-2.2s-10,0.7-14.8,2.2l-21.5-10.8c-1.3-0.6-2.8,0.2-3,1.6
						l-3.7,31.1c-4.8,7.9-7.3,16.9-7.3,26.1c0,8.1,1.9,15.8,5.4,22.7c0,0.1,0.1,0.2,0.1,0.4l10,25.9c0.3,0.8,1.1,1.3,1.9,1.3h6.6
						c0.9,0,1.7-0.6,2-1.5l1.3-4.2c6.9,3.6,14.7,5.6,23.1,5.6c8.3,0,16.1-2,23.1-5.6l1.3,4.2c0.3,0.9,1.1,1.5,2,1.5h6.6
						c0.9,0,1.6-0.5,1.9-1.3l10.1-26.2c0-0.1,0.1-0.2,0.1-0.3c3.4-6.8,5.3-14.4,5.3-22.5C785.4,127.8,785.4,126.5,785.3,125.3z
						 M707.4,175.3h-3.6l-4.1-10.7c2.7,2.7,5.6,5.1,8.9,7.1L707.4,175.3z M766.6,175.3H763l-1.1-3.6c3.2-2,6.2-4.4,8.9-7.1
						L766.6,175.3z"/>
				</g>
			</g>
			<g>
				<g>
					<path class="st5" d="M770.7,96.3L769,82c-0.2-1.4-1.7-2.2-3-1.6l-11.8,5.9c-1.4,0.7-1.5,2.7-0.2,3.6l13.5,8.4
						c0.3,0.2,0.7,0.3,1.1,0.3C769.9,98.6,770.9,97.5,770.7,96.3z M759.4,88.3l5.9-3l0.8,7.2L759.4,88.3z"/>
				</g>
			</g>
			<g>
				<g>
					<path class="st5" d="M716.1,86.3l-11.8-5.9c-1.3-0.6-2.8,0.2-3,1.6l-1.7,14.4c-0.2,1.7,1.7,2.9,3.1,2l13.5-8.4
						c0.6-0.4,1-1.1,1-1.8C717.2,87.3,716.8,86.6,716.1,86.3z M704.2,92.6l0.8-7.2l5.9,3L704.2,92.6z"/>
				</g>
			</g>
			<g>
				<g>
					<path class="st5" d="M754.9,105.2c-3.5,0-6.4,2.9-6.4,6.4c0,1.1,0.9,2.1,2.1,2.1s2.1-0.9,2.1-2.1c0-1.3,1-2.3,2.3-2.3
						s2.3,1,2.3,2.3c0,1.1,0.9,2.1,2.1,2.1c1.1,0,2.1-0.9,2.1-2.1C761.3,108,758.4,105.2,754.9,105.2z"/>
				</g>
			</g>
			<g>
				<g>
					<path class="st5" d="M715.5,105.2c-3.5,0-6.4,2.9-6.4,6.4c0,1.1,0.9,2.1,2.1,2.1s2.1-0.9,2.1-2.1c0-1.3,1-2.3,2.3-2.3
						s2.3,1,2.3,2.3c0,1.1,0.9,2.1,2.1,2.1s2.1-0.9,2.1-2.1C721.9,108,719,105.2,715.5,105.2z"/>
				</g>
			</g>
			<g>
				<g>
					<path class="st5" d="M735.2,113.9c-8.4,0-15.2,5.3-15.2,11.9c0,6.6,6.8,11.9,15.2,11.9s15.2-5.3,15.2-11.9
						S743.6,113.9,735.2,113.9z M735.2,133.6c-6.1,0-11.1-3.5-11.1-7.8s5-7.8,11.1-7.8s11.1,3.5,11.1,7.8S741.3,133.6,735.2,133.6z"
						/>
				</g>
			</g>
			<g>
				<g>
					<path class="st5" d="M727.6,125.2c-0.9,0.5-1.2,1.6-0.8,2.5c0.3,0.8,1.1,1.3,2,1.3c0.8,0,1.6-0.6,1.9-1.4
						C731.1,125.8,729.1,124.2,727.6,125.2z"/>
				</g>
			</g>
			<g>
				<g>
					<path class="st5" d="M743.1,125.3c-0.7-0.6-1.7-0.6-2.4-0.1c-0.8,0.5-1.1,1.6-0.8,2.5c0.3,0.8,1.1,1.3,1.9,1.3
						c0.8,0,1.6-0.6,1.9-1.4C744,126.8,743.7,125.9,743.1,125.3z"/>
				</g>
			</g>
			<g>
				<g>
					<path class="st5" d="M756.6,137.2c-0.6-0.9-1.9-1.2-2.9-0.5c-5.5,3.7-11.9,5.7-18.6,5.7c-6.7,0-13.1-2-18.6-5.7
						c-0.9-0.6-2.2-0.4-2.9,0.5c-0.6,0.9-0.4,2.2,0.5,2.9c6.2,4.2,13.4,6.4,20.9,6.4s14.7-2.2,20.9-6.4
						C757,139.5,757.2,138.2,756.6,137.2z"/>
				</g>
			</g>
			<g>
				<g>
					<path class="st5" d="M735.2,40.1c-10.4,0-18.9,8.5-18.9,18.9s8.4,19,18.9,19c10.4,0,18.9-8.5,18.9-18.9S745.6,40.1,735.2,40.1z
						 M735.2,73.8c-8.2,0-14.8-6.7-14.8-14.8s6.7-14.8,14.8-14.8c8.2,0,14.8,6.7,14.8,14.8S743.4,73.8,735.2,73.8z"/>
				</g>
			</g>
			<g>
				<g>
					<path class="st5" d="M798.7,103h-2.3v-2.3c0-1.1-0.9-2.1-2.1-2.1s-2.1,0.9-2.1,2.1v2.3H790c-1.1,0-2.1,0.9-2.1,2.1
						c0,1.1,0.9,2.1,2.1,2.1h2.3v2.3c0,1.1,0.9,2.1,2.1,2.1s2.1-0.9,2.1-2.1v-2.3h2.3c1.1,0,2.1-0.9,2.1-2.1
						C800.8,103.9,799.9,103,798.7,103z"/>
				</g>
			</g>
			<g>
				<g>
					<path class="st5" d="M772.4,48.2h-2.3v-2.3c0-1.1-0.9-2.1-2.1-2.1s-2.1,0.9-2.1,2.1v2.3h-2.3c-1.1,0-2.1,0.9-2.1,2.1
						s0.9,2.1,2.1,2.1h2.3v2.3c0,1.1,0.9,2.1,2.1,2.1s2.1-0.9,2.1-2.1v-2.3h2.3c1.1,0,2.1-0.9,2.1-2.1S773.6,48.2,772.4,48.2z"/>
				</g>
			</g>
			<g>
				<g>
					<path class="st5" d="M680.4,89.8h-2.3v-2.3c0-1.1-0.9-2.1-2.1-2.1s-2.1,0.9-2.1,2.1v2.3h-2.3c-1.1,0-2.1,0.9-2.1,2.1
						c0,1.1,0.9,2.1,2.1,2.1h2.3v2.3c0,1.1,0.9,2.1,2.1,2.1s2.1-0.9,2.1-2.1V94h2.3c1.1,0,2.1-0.9,2.1-2.1
						C682.5,90.7,681.5,89.8,680.4,89.8z"/>
				</g>
			</g>
			<g>
				<g>
					<path class="st8" d="M735.2,49.7c-5.2,0-9.4,4.2-9.4,9.4s4.2,9.4,9.4,9.4s9.4-4.2,9.4-9.4S740.3,49.7,735.2,49.7z M735.2,66.3
						c-4,0-7.3-3.3-7.3-7.3s3.3-7.3,7.3-7.3s7.3,3.3,7.3,7.3S739.2,66.3,735.2,66.3z"/>
				</g>
			</g>
		</g>
	</g>
	<g class="st0">
		<path class="st6" d="M689.5,491.7c-9.9-6.6-19.1-14.4-28.2-22.2c-12.1-10.4-24.6-21.6-30.2-37.1c-11.3-31.4,1.2-88.5,21.9-113
			c13.5-15.9,41.5-26.9,60.3-33.5c22-7.8,46-9.3,68.6-3.8c36,8.8,68,35.4,84.9,70.6c5.9,12.3,10.2,25.9,10,39.8
			c-0.3,18.1-7.9,35.2-17.5,50c-16.8,26.1-40.4,47.5-68,58.8c-27.6,11.2-59.3,11.7-86.4-0.9C699.6,498,694.5,495,689.5,491.7z"/>
		<g class="st7">
			<path class="st5" d="M797.4,341.8h-9.3v-6.7c0-3.9-3.2-7-7-7c-3.9,0-7,3.2-7,7v6.7h-32.2c-1,0-1.9,0.8-1.9,1.9
				c0,1,0.8,1.9,1.9,1.9H774v4.2c0,3.9,3.2,7,7,7c3.9,0,7-3.2,7-7v-4.2h9.2c5.6,0,10.2,4.6,10.2,10.2v14.6H693.9v-14.6
				c0-5.6,4.6-10.2,10.2-10.2h9.2v4.2c0,3.9,3.2,7,7,7c3.9,0,7-3.2,7-7v-4.2h7.1c1,0,1.9-0.8,1.9-1.9c0-1-0.8-1.9-1.9-1.9h-7.1v-6.7
				c0-3.9-3.2-7-7-7s-7,3.2-7,7v6.7H704c-7.6,0-13.9,6.2-13.9,13.9v83c0,7.7,6.2,13.9,13.9,13.9c0,0,0,0,0.1,0s0,0,0.1,0h8
				c1,0,1.9-0.8,1.9-1.9c0-1-0.8-1.9-1.9-1.9h-8c0,0,0,0-0.1,0c0,0,0,0-0.1,0c-0.4,0-0.9,0-1.3-0.1c0-0.1,0-0.2,0-0.3V374h95.8v74.1
				c0,0.2,0,0.4,0.1,0.5c-0.4,0.1-0.9,0.1-1.3,0.1h-77.7c-1,0-1.9,0.8-1.9,1.9c0,1,0.8,1.9,1.9,1.9H798c0.1,0,0.3,0,0.4,0
				c7.2-0.5,12.9-6.5,12.9-13.9v-83C811.2,348.1,805,341.8,797.4,341.8z M784.4,349.7c0,1.8-1.5,3.3-3.3,3.3s-3.3-1.5-3.3-3.3V335
				c0-1.8,1.5-3.3,3.3-3.3s3.3,1.5,3.3,3.3V349.7z M717,335.1c0-1.8,1.5-3.3,3.3-3.3s3.3,1.5,3.3,3.3v14.7c0,1.8-1.5,3.3-3.3,3.3
				s-3.3-1.5-3.3-3.3V335.1z M699.1,447.5c-3.1-1.7-5.2-5.1-5.2-8.8V374h5.2V447.5z M802.3,447.5V374h5.2v64.6
				C807.5,442.4,805.4,445.7,802.3,447.5z"/>
			<path class="st5" d="M738.6,406.2c-0.6,0.2-1.1,0.6-1.3,1.2s-0.1,1.3,0.3,1.8l4.3,5.4l-0.4,6.9c0,0.6,0.3,1.2,0.8,1.6
				c0.3,0.2,0.7,0.4,1.1,0.4c0.2,0,0.5,0,0.7-0.1l6.4-2.5l6.4,2.5c0.6,0.2,1.3,0.1,1.8-0.2c0.5-0.4,0.8-1,0.8-1.6l-0.4-6.9l4.3-5.4
				c0.4-0.5,0.5-1.2,0.3-1.8c-0.2-0.6-0.7-1.1-1.3-1.2l-6.7-1.8l-3.8-5.8c-0.3-0.5-0.9-0.8-1.6-0.8s-1.2,0.3-1.6,0.8l-3.8,5.8
				L738.6,406.2z M748,407l2.6-4l2.6,4c0.3,0.4,0.6,0.7,1.1,0.8l4.6,1.2l-3,3.7c-0.3,0.4-0.4,0.8-0.4,1.3l0.2,4.7l-4.4-1.7
				c-0.2-0.1-0.4-0.1-0.7-0.1s-0.5,0-0.7,0.1l-4.4,1.7l0.2-4.7c0-0.5-0.1-0.9-0.4-1.3l-3-3.7l4.6-1.2
				C747.4,407.7,747.8,407.4,748,407z"/>
			<path class="st5" d="M750.5,394.6c1,0,1.9-0.8,1.9-1.9v-7.9c0-1-0.8-1.9-1.9-1.9c-1,0-1.9,0.8-1.9,1.9v7.9
				C748.6,393.8,749.5,394.6,750.5,394.6z"/>
			<path class="st5" d="M768,391.2l-5.6,5.6c-0.7,0.7-0.7,1.9,0,2.6c0.4,0.4,0.8,0.5,1.3,0.5s1-0.2,1.3-0.5l5.6-5.6
				c0.7-0.7,0.7-1.9,0-2.6C769.9,390.5,768.7,390.5,768,391.2z"/>
			<path class="st5" d="M779.1,411.2c0-1-0.8-1.9-1.9-1.9h-7.9c-1,0-1.9,0.8-1.9,1.9c0,1,0.8,1.9,1.9,1.9h7.9
				C778.3,413.1,779.1,412.2,779.1,411.2z"/>
			<path class="st5" d="M762.7,423.2c-0.7,0.7-0.7,1.9,0,2.6l5.6,5.6c0.4,0.4,0.8,0.5,1.3,0.5s1-0.2,1.3-0.5c0.7-0.7,0.7-1.9,0-2.6
				l-5.6-5.6C764.6,422.4,763.5,422.4,762.7,423.2z"/>
			<path class="st5" d="M749,430.1v7.9c0,1,0.8,1.9,1.9,1.9c1,0,1.9-0.8,1.9-1.9v-7.9c0-1-0.8-1.9-1.9-1.9
				C749.9,428.2,749,429.1,749,430.1z"/>
			<path class="st5" d="M736.3,423.4l-5.6,5.6c-0.7,0.7-0.7,1.9,0,2.6c0.4,0.4,0.8,0.5,1.3,0.5s1-0.2,1.3-0.5l5.6-5.6
				c0.7-0.7,0.7-1.9,0-2.6C738.2,422.7,737,422.7,736.3,423.4z"/>
			<path class="st5" d="M722.3,411.6c0,1,0.8,1.9,1.9,1.9h7.9c1,0,1.9-0.8,1.9-1.9c0-1-0.8-1.9-1.9-1.9h-7.9
				C723.1,409.8,722.3,410.6,722.3,411.6z"/>
			<path class="st5" d="M733.1,391.5c-0.7-0.7-1.9-0.7-2.6,0c-0.7,0.7-0.7,1.9,0,2.6l5.6,5.6c0.4,0.4,0.8,0.5,1.3,0.5s1-0.2,1.3-0.5
				c0.7-0.7,0.7-1.9,0-2.6L733.1,391.5z"/>
		</g>
	</g>
	<g class="st0">
		<path class="st6" d="M310.4,385c0.2-4.9,0.7-9.8,1.7-14.9c18.3-93.6,136.4-107.9,201.1-71c12.5,7.1,24.2,16.4,32.9,28.7
			c23.7,33.5,11.8,73.6,6.9,111.8c-1.5,12-3.1,24.2-8.3,34.9c-8,16.4-23.6,27-39.9,32c-16.3,4.9-33.5,4.9-50.4,4.9
			c-16.3,0-32.9-0.1-48.4-5.6C360.4,489.5,308.5,442.2,310.4,385z"/>
		<g class="st7">
			<path class="st5" d="M505.2,372.2c-1-0.6-2.1-0.9-3.2-1c-4.4-0.5-8.4,2.3-9.5,6.5l-4.7,22.9l-0.8,4c-0.5,2.3-1.8,4.3-3.6,5.6
				l-14.7,10.6l0,0l2.5-10.5c0.6-2.5,0.2-5-1.1-7.2c-1.3-2.2-3.3-3.8-5.8-4.5c-5-1.4-10.3,1.3-12,6.3l-8.7,26
				c-0.1,0.2-0.2,0.5-0.2,0.7c-0.9,3.6,0,7.3,2.4,10l0,0l-4.2,7.5l-4.2-7.5l0,0c2.4-2.7,3.3-6.4,2.4-10c-0.1-0.2-0.1-0.5-0.2-0.7
				l-8.7-26c-1.7-5-6.9-7.7-12-6.3c-2.4,0.7-4.5,2.3-5.8,4.5s-1.7,4.7-1.1,7.2l2.5,10.5l0,0L400,410.1c-1.9-1.4-3.2-3.4-3.6-5.6
				l-0.8-4l-4.7-22.9c-1.1-4.2-5.2-7-9.5-6.5c-1.2,0.1-2.2,0.5-3.2,1c-3.1,1.7-4.8,5.1-4.5,8.6l3.6,35.9c0.3,3.4,2.1,6.6,4.8,8.7
				l17.1,13.7c0.8,0.6,1.9,0.5,2.6-0.3c0.6-0.8,0.5-1.9-0.3-2.6l-17.1-13.7c-1.9-1.5-3.2-3.8-3.4-6.3l-3.6-35.9c-0.2-2,0.8-4,2.6-5
				c0.6-0.3,1.2-0.5,1.9-0.6c2.6-0.3,5.1,1.5,5.6,4.1l5.4,26.4c0.6,3.2,2.5,6,5.1,7.9l18.7,13.5c0.6,0.4,1.5,0.5,2.1,0
				c0.6-0.4,0.9-1.2,0.8-1.9l-3.7-15.3c-0.4-1.5-0.1-3.1,0.7-4.5c0.8-1.4,2.1-2.4,3.6-2.8c3.2-0.9,6.4,0.8,7.5,3.9l8.7,26
				c0.1,0.2,0.1,0.3,0.1,0.5c0.8,3-0.5,6.2-3.1,7.9c-0.1,0.1-0.3,0.2-0.4,0.2l0,0l1.8,3.2l4.3,7.6c0,0,0,0,0,0.1l2.2,3.9h-21.7v0.1
				l-4.8-8.7c-0.1-0.2-0.3-0.4-0.5-0.5l-7-5.6c-0.8-0.6-1.9-0.5-2.6,0.3c-0.6,0.8-0.5,1.9,0.3,2.6l6.7,5.4l4.7,8.4
				c0.4,0.7,1.3,1.1,2.1,0.9c0.1,0,0.2-0.1,0.3-0.1h46.3c0.1,0,0.2,0.1,0.3,0.1c0.8,0.2,1.6-0.1,2.1-0.9l4.7-8.4l12.4-9.9l17.1-13.7
				c2.7-2.1,4.4-5.3,4.8-8.7l3.6-35.9C510,377.2,508.3,373.9,505.2,372.2z M506,380.4l-3.6,35.9c-0.2,2.4-1.5,4.7-3.4,6.3
				l-17.1,13.7l-5.5,4.4c-0.1,0-0.2,0.1-0.2,0.2c0,0-2.6,2.1-4.8,3.9l0,0l0,0c-1.4,1.2-2.6,2.2-2.7,2.2l-4.8,8.7v-0.1h-19.3
				l-1.1-2.3l1.6-3l3.6-6.4l1.8-3.2l0,0c-0.1-0.1-0.3-0.2-0.4-0.2c-2.6-1.7-3.9-4.9-3.1-7.9c0-0.2,0.1-0.3,0.1-0.5l8.7-26
				c1-3.1,4.3-4.8,7.5-3.9c1.5,0.4,2.8,1.4,3.6,2.8c0.8,1.4,1,3,0.7,4.5l-3.7,15.3c-0.2,0.7,0.1,1.5,0.8,1.9c0.6,0.4,1.5,0.4,2.1,0
				l18.7-13.5c2.6-1.9,4.4-4.7,5.1-7.9l5.4-26.4c0.5-2.6,3-4.4,5.6-4.1c0.7,0.1,1.3,0.3,1.9,0.6C505.2,376.4,506.2,378.3,506,380.4z
				"/>
			<path class="st5" d="M438.4,366.6c0.4,0.3,0.8,0.6,1.2,0.7v7.2c0,1,0.8,1.9,1.9,1.9c1,0,1.9-0.8,1.9-1.9v-7.2
				c0.4-0.2,0.8-0.4,1.2-0.7c5.8-5,9.1-12.3,9.1-19.9c0-2.1-0.3-4.2-0.7-6.2c-0.2-1-1.3-1.6-2.3-1.4s-1.6,1.3-1.4,2.3
				c0.4,1.7,0.6,3.5,0.6,5.3c0,6-2.4,11.7-6.6,15.9v-19.7c0-1-0.8-1.9-1.9-1.9c-1,0-1.9,0.8-1.9,1.9v19.7c-4.2-4.2-6.6-9.9-6.6-15.9
				c0-6.9,3.1-13.3,8.4-17.6c1.8,1.4,3.3,3.1,4.6,5c0.6,0.9,1.8,1.1,2.6,0.5c0.9-0.6,1.1-1.8,0.5-2.6c-1.5-2.2-3.3-4.2-5.4-5.9
				c-1.4-1.1-3.3-1.1-4.7,0c-6.3,5-9.9,12.5-9.9,20.5C429.3,354.3,432.6,361.6,438.4,366.6z"/>
			<path class="st5" d="M455.8,384.8c0.5,0,1-0.2,1.3-0.6l5.1-5.1c0.4,0.2,0.9,0.3,1.4,0.3c0.7,0,1.3,0.1,2,0.1
				c6.9,0,13.6-2.7,18.6-7.7c5.7-5.7,8.4-13.5,7.5-21.5c-0.2-1.7-1.5-3.1-3.3-3.3c-8-0.9-15.8,1.8-21.5,7.5
				c-5.4,5.4-8.2,12.9-7.6,20.5c0,0.5,0.1,0.9,0.3,1.4l-5.1,5.1c-0.7,0.7-0.7,1.9,0,2.7C454.9,384.6,455.3,384.8,455.8,384.8z
				 M469.5,357.2c4.3-4.3,9.9-6.6,15.9-6.6c0.8,0,1.7,0,2.5,0.1c0.8,6.8-1.6,13.5-6.4,18.4c-4.2,4.2-9.9,6.6-15.9,6.6l14-14
				c0.7-0.7,0.7-1.9,0-2.7c-0.7-0.7-1.9-0.7-2.7,0l-14,14C463,367.2,465.3,361.5,469.5,357.2z"/>
			<path class="st5" d="M399.2,371.9c4.9,4.9,11.6,7.7,18.6,7.7c0.7,0,1.3,0,2-0.1c0.5,0,0.9-0.1,1.4-0.3l5.1,5.1
				c0.4,0.4,0.9,0.6,1.3,0.6c0.5,0,1-0.2,1.3-0.6c0.7-0.7,0.7-1.9,0-2.7l-5.1-5.1c0.2-0.4,0.3-0.9,0.3-1.4
				c0.6-7.6-2.2-15.1-7.6-20.5c-5.7-5.7-13.5-8.4-21.5-7.5c-1.7,0.2-3.1,1.5-3.3,3.3C390.7,358.3,393.5,366.2,399.2,371.9z
				 M395.4,350.8c6.8-0.8,13.5,1.6,18.4,6.4c4.2,4.2,6.6,9.9,6.6,15.9l-14-14c-0.7-0.7-1.9-0.7-2.7,0c-0.7,0.7-0.7,1.9,0,2.7l14,14
				c-5.9,0-11.6-2.4-15.9-6.6C397,364.3,394.6,357.6,395.4,350.8z"/>
		</g>
	</g>
	<g class="st0">
		<path class="st2" d="M69.8,304.4c17.3-10,34.2-9.7,52.4-14.3c18.4-4.6,29.8-11.4,49.9-7.1c71.2,15.3,106.3,99.3,79.2,168.8
			C238.4,485,208,511.4,174,512.6c-16.9,0.6-33.5-4.8-49.3-11.1c-26.7-10.7-52.3-24.4-77.8-38.1c-9.7-5.2-19.7-10.7-26.7-19.6
			C5,424.3,9.7,394.8,20,371.9C31.2,347.1,46.3,318,69.8,304.4z"/>
		<g class="st7">
			<path class="st5" d="M204.5,461.2l-13.8-42.7c0.8-0.5,1.5-1.1,2-1.8c2-2.5,2.2-5.8,0.7-8.6c-1-1.7-0.5-3.8,1.1-4.9
				c2.6-1.8,3.8-4.9,3.1-8s-3.2-5.4-6.3-5.9c-1.9-0.3-3.3-2-3.1-3.9c0.2-3.2-1.5-6.1-4.3-7.5c-2.9-1.4-6.2-0.9-8.5,1.3
				c-1.4,1.3-3.6,1.3-5,0c-2.3-2.1-5.7-2.7-8.5-1.3c-2.9,1.4-4.5,4.3-4.3,7.5c0.1,1.9-1.2,3.6-3.1,3.9c-3.1,0.5-5.6,2.8-6.3,5.9
				s0.5,6.2,3.1,8c0.8,0.5,1.3,1.4,1.5,2.3H85.3c-0.4,0-0.7-0.3-0.7-0.7v-64.5c0-0.4,0.3-0.7,0.7-0.7h102.5c0.4,0,0.7,0.3,0.7,0.7
				v38c0,1.1,0.9,2,2,2s2-0.9,2-2v-38c0-2.6-2.1-4.6-4.6-4.6H85.3c-2.6,0-4.6,2.1-4.6,4.6v64.5c0,2.6,2.1,4.6,4.6,4.6h66.5
				c-0.8,2.4-0.4,5.2,1.3,7.2c2,2.5,5.2,3.5,8.2,2.5c1.8-0.6,3.8,0.4,4.5,2.2c1.2,2.9,3.9,4.8,7.1,4.8l-13.2,40.8c0,0,0,0.1-0.1,0.1
				s-0.1,0-0.2-0.1l-5-5.5c-0.5-0.5-1.2-0.8-1.9-0.6l-7.2,1.5c0,0-0.1,0-0.2-0.1c-0.1-0.1,0-0.1,0-0.2l11.5-35.6
				c0.3-1-0.2-2.2-1.3-2.5c-1-0.3-2.2,0.2-2.5,1.3l-11.5,35.6c-0.5,1.4-0.1,2.9,0.9,4.1c1,1.1,2.5,1.6,3.9,1.3l6.1-1.3l4.2,4.6
				c0.8,0.9,1.9,1.4,3.1,1.4c0.3,0,0.6,0,0.9-0.1c1.5-0.3,2.6-1.4,3.1-2.8l14.1-43.6c1.1-0.8,2-2,2.5-3.3c0.7-1.8,2.7-2.7,4.5-2.2
				c0.8,0.2,1.6,0.3,2.4,0.3l13.8,42.8c0,0,0,0.1,0,0.2c-0.1,0.1-0.1,0.1-0.2,0.1l-7.2-1.5c-0.7-0.1-1.4,0.1-1.9,0.6l-5,5.5
				c0,0-0.1,0.1-0.2,0.1c-0.1,0-0.1-0.1-0.1-0.1l-7.9-24.4c-0.3-1-1.5-1.6-2.5-1.3c-1,0.3-1.6,1.5-1.3,2.5l7.9,24.4
				c0.5,1.4,1.6,2.5,3.1,2.8c0.3,0.1,0.6,0.1,0.9,0.1c1.2,0,2.3-0.5,3.1-1.4l4.2-4.6l6.1,1.3c1.5,0.3,2.9-0.2,3.9-1.3
				C204.7,464.1,205,462.6,204.5,461.2z M176.3,420c-0.7,1.7-2.2,2.3-3.4,2.3s-2.8-0.6-3.4-2.3c-1.2-3-4.1-4.8-7.2-4.8
				c-0.7,0-1.5,0.1-2.2,0.3c-1.8,0.5-3.2-0.3-4-1.2c-0.8-0.9-1.2-2.5-0.3-4.1c2-3.4,1-7.9-2.3-10.1c-1.5-1-1.8-2.7-1.5-3.9
				c0.3-1.2,1.2-2.5,3-2.8c3.9-0.6,6.8-4.2,6.5-8.1c-0.1-1.8,1-3.1,2.1-3.6s2.7-0.6,4.1,0.6c2.9,2.7,7.5,2.7,10.4,0
				c1.4-1.3,3-1.1,4.1-0.6s2.2,1.7,2.1,3.6c-0.3,4,2.6,7.5,6.5,8.1c1.8,0.3,2.8,1.6,3,2.8c0.3,1.2,0,2.8-1.5,3.9
				c-3.3,2.2-4.3,6.7-2.3,10.1c0.9,1.6,0.4,3.2-0.3,4.1c-0.8,0.9-2.2,1.8-4,1.2C181.9,414.3,177.8,416.3,176.3,420z"/>
			<path class="st5" d="M94.5,345.5c-2,0-3.6,1.6-3.6,3.6v46.8c0,2,1.6,3.6,3.6,3.6h43.4c2,0,3.6-1.6,3.6-3.6v-46.8
				c0-2-1.6-3.6-3.6-3.6H94.5z M137.5,349.5v32.8c-2.1-1.9-4.8-3-7.8-3c2.4-3,3.7-6.7,3.7-10.6c0-9.5-7.7-17.2-17.2-17.2
				S99,359.2,99,368.7c0,3.9,1.3,7.6,3.7,10.6c-3,0-5.7,1.2-7.8,3v-32.8H137.5z M137.5,395.5H94.9v-4.3c0-4.4,3.6-7.9,7.9-7.9h4.8
				c0.9,0,1.6-0.6,1.9-1.4s-0.1-1.7-0.8-2.2c-3.7-2.5-5.8-6.6-5.8-11c0-7.3,5.9-13.2,13.2-13.2c7.3,0,13.2,5.9,13.2,13.2
				c0,4.4-2.2,8.5-5.8,11c-0.7,0.5-1,1.4-0.8,2.2c0.3,0.8,1,1.4,1.9,1.4h4.8c4.4,0,7.9,3.6,7.9,7.9v4.3H137.5z"/>
			<path class="st5" d="M178.6,354.6h-27.3c-1.1,0-2,0.9-2,2s0.9,2,2,2h27.3c1.1,0,2-0.9,2-2S179.7,354.6,178.6,354.6z"/>
			<path class="st5" d="M178.6,364h-27.3c-1.1,0-2,0.9-2,2s0.9,2,2,2h27.3c1.1,0,2-0.9,2-2S179.7,364,178.6,364z"/>
		</g>
	</g>
</g>
</svg>
