<?xml version="1.0" encoding="utf-8"?>
<!-- Generator: Adobe Illustrator 26.0.1, SVG Export Plug-In . SVG Version: 6.00 Build 0)  -->
<svg version="1.1" id="Ebene_1" xmlns="http://www.w3.org/2000/svg" xmlns:xlink="http://www.w3.org/1999/xlink" x="0px" y="0px"
	 viewBox="0 0 458.02 457.85" style="enable-background:new 0 0 458.02 457.85;" xml:space="preserve">
<style type="text/css">
	.st0{display:none;}
	.st1{display:inline;}
	.st2{fill:#49485C;}
	.st3{display:inline;fill:none;stroke:#BABABA;stroke-width:3;stroke-miterlimit:10;}
	.st4{fill:#BABABA;}
</style>
<g class="st0">
	<g class="st1">
		<g id="glass">
			<path class="st2" d="M-363.76,213.67v29.23h68.99c-7.02,40.92-39.76,70.16-80.68,70.16c-47.94,0-87.7-39.76-87.7-87.7
				s39.76-87.7,87.7-87.7c24.55,0,45.6,10.52,60.8,26.89l21.05-21.05c-21.05-21.05-49.11-35.08-81.85-35.08
				c-64.31,0-116.93,52.62-116.93,116.93s52.62,116.93,116.93,116.93s111.08-52.62,111.08-116.93v-11.69H-363.76z"/>
		</g>
	</g>
	<circle class="st3" cx="-378.38" cy="223.26" r="227.51"/>
</g>
<g>
	<g>
		<g id="f_1_">
			<path class="st2" d="M245.9,349.96V243.1h33.37l5.01-41.66H245.9v-26.59c0-12.06,3.1-20.27,19.21-20.27l20.51-0.01V117.3
				c-3.55-0.5-15.72-1.63-29.9-1.63c-29.59,0-49.85,19.41-49.85,55.05v30.72h-33.47v41.66h33.47v106.86H245.9z"/>
		</g>
	</g>
	<g>
		<path class="st4" d="M229.01,458.03c-61.17,0-118.68-23.82-161.94-67.08C23.82,347.7,0,290.19,0,229.01
			c0-61.17,23.82-118.68,67.08-161.94S167.84,0,229.01,0S347.7,23.82,390.95,67.08s67.08,100.77,67.08,161.94
			c0,61.17-23.82,118.68-67.08,161.94C347.7,434.21,290.19,458.03,229.01,458.03z M229.01,3C104.39,3,3,104.39,3,229.01
			s101.39,226.01,226.01,226.01s226.01-101.39,226.01-226.01S353.64,3,229.01,3z"/>
	</g>
</g>
</svg>
