<?xml version="1.0" encoding="utf-8"?>
<!-- Generator: Adobe Illustrator 26.0.1, SVG Export Plug-In . SVG Version: 6.00 Build 0)  -->
<svg version="1.1" id="Ebene_1" xmlns="http://www.w3.org/2000/svg" xmlns:xlink="http://www.w3.org/1999/xlink" x="0px" y="0px"
	 viewBox="0 0 455.03 455.03" style="enable-background:new 0 0 455.03 455.03;" xml:space="preserve">
<style type="text/css">
	.st0{fill:#49485C;}
	.st1{fill:none;stroke:#BABABA;stroke-width:3;stroke-miterlimit:10;}
	.st2{display:none;}
	.st3{display:inline;}
	.st4{display:inline;fill:none;stroke:#BABABA;stroke-width:3;stroke-miterlimit:10;}
</style>
<g>
	<g>
		<g id="glass">
			<path class="st0" d="M242.13,217.92v29.23h68.99c-7.02,40.92-39.76,70.16-80.68,70.16c-47.94,0-87.7-39.76-87.7-87.7
				s39.76-87.7,87.7-87.7c24.55,0,45.6,10.52,60.8,26.89l21.05-21.05c-21.05-21.05-49.11-35.08-81.85-35.08
				c-64.31,0-116.93,52.62-116.93,116.93s52.62,116.93,116.93,116.93s111.08-52.62,111.08-116.93v-11.69H242.13z"/>
		</g>
	</g>
	<circle class="st1" cx="227.51" cy="227.51" r="227.51"/>
</g>
<g class="st2">
	<g class="st3">
		<path id="f_1_" class="st0" d="M851.79,354.22V247.36h33.37l5.01-41.66h-38.37V179.1c0-12.06,3.1-20.27,19.21-20.27l20.51-0.01
			v-37.26c-3.55-0.5-15.72-1.63-29.9-1.63c-29.59,0-49.85,19.41-49.85,55.05v30.72H778.3v41.66h33.47v106.86H851.79z"/>
	</g>
	<circle class="st4" cx="834.91" cy="233.27" r="227.51"/>
</g>
</svg>
