<?xml version="1.0" encoding="utf-8"?>
<!-- Generator: Adobe Illustrator 25.2.3, SVG Export Plug-In . SVG Version: 6.00 Build 0)  -->
<svg version="1.1" id="Ebene_1" xmlns="http://www.w3.org/2000/svg" xmlns:xlink="http://www.w3.org/1999/xlink" x="0px" y="0px"
	 viewBox="0 0 250 231" style="enable-background:new 0 0 250 231;" xml:space="preserve">
<style type="text/css">
	.st0{display:none;}
	.st1{display:inline;fill:#F9F0ED;}
	.st2{display:inline;fill:#F5F4EE;}
	.st3{display:inline;fill:#FB635D;}
	.st4{display:inline;}
	.st5{fill:#FB635D;}
	.st6{display:inline;fill:#FFFFFF;}
	.st7{fill:#FB635D;stroke:#FB635D;stroke-width:2;stroke-miterlimit:10;}
	.st8{fill:#FFFFFF;}
</style>
<g id="Background" class="st0">
	<rect id="Background_4_" x="-94.8" y="-176.4" class="st1" width="1200" height="1200"/>
</g>
<g id="Graphic_Elements">
	<g class="st0">
		<path class="st2" d="M-80.8-196.7c-1.6-3.6-3.4-7.3-5.6-11.2c-12.3-21.8-34.6-36.5-58-45.5s-48.4-13.1-72.9-18.9
			c-10.4-2.5-20.9-5.3-31.5-5.2c-22.4,0.2-43.4,13.5-56.3,31.6s-18.4,40.8-19.3,63c-0.8,19.9,2.2,40.8,13.4,57.3
			c6,8.9,14.1,16.1,22.1,23.1c12.5,11.1,25,22.1,37.5,33.2c6.7,6,13.6,12.1,21.6,16.1c26.4,13.4,66.6,2.6,87.5-16
			c5-4.4,10.3-8.5,15.6-12.5c10.3-7.6,20.9-15.1,29.2-25c7-8.5,12.4-18,16.1-28.4C-72.8-158.3-71.9-176.1-80.8-196.7z"/>
		<path class="st3" d="M-135-111.5v-39.6c0-1.9-1.1-3.6-2.9-4.4l-19.8-8.1c-2.4-1-5.1,0.2-6,2.5l-0.7,1.7c-5.3-2-10.6-3.6-16-4.7
			c-7.1-1.4-9.6-1-22.1,1.8h-0.1c-4.4,1-6.2,2.7-20.7,12.6c-3.6,2.4-4.2,5.6-3.8,8.2l-1.7-0.1c-0.6-0.6-1.2-1.1-1.9-1.5l-16.9-10
			c-4.1-2.5-9.5-1.1-11.9,3c-1.4,2.3-1.6,5-0.7,7.4c-2.4,1.1-4.1,3.1-4.8,5.9c0,0,0,0,0,0.1c-1.4,7.2,5.4,10.3,7.7,10.7
			c44.6,9,40.9,8.2,41.7,8.3c1,0.1,2-0.6,2.1-1.7c0.1-1-0.6-2-1.7-2.1c-0.6-0.1-10.7-2.1-41.3-8.3c-1.1-0.3-5.6-1.8-4.7-6.2
			c0.8-3.4,3.7-4.1,7.1-3.6c0.1,0,28.6,2,28.7,2c2,2.6,5.3,3.8,8.8,2c4.5-2.2,15.1-7.4,15.2-7.4c0.9-0.5,1.3-1.6,0.9-2.6
			c-0.5-0.9-1.6-1.3-2.6-0.9c-0.1,0.1-10.7,5.3-15.2,7.5c-2.8,1.4-4.3-1.1-4.4-1.4l0,0l0,0c-0.3-0.6-2-3.8,1.5-6.1
			c14.3-9.8,15.9-11.2,19.5-12l0,0c12-2.6,14.2-3,20.5-1.7c5.1,1,10.2,2.5,15.3,4.5c-2.9,7-9.1,22-9.4,22.7l-2.1-0.9
			c-2.8-1.1-5.8-1.5-8.8-0.9c-2.8,0.5-5.1,1.2-8,3.3c-12.5,8.5-11.7,8.1-13.2,8.7c-1,0.4-1.4,1.6-0.9,2.5c0.4,1,1.6,1.4,2.5,0.9
			c1.8-0.8,1.1-0.4,13.7-9c3.9-2.6,8.9-3.8,13.2-2l2.1,0.9l-0.7,1.7c-1,2.4,0.2,5.1,2.5,6l34.4,14.1
			C-137.9-106.7-135-108.6-135-111.5z M-236.6-142.2c-0.3,0-19.6-1.4-19.9-1.4c-2.2-4.3,2.7-8.9,6.9-6.4L-236.6-142.2z
			 M-138.9-111.5c0,0.1-0.1,0.2-0.3,0.2l-34.4-14.1c-0.4-0.2-0.6-0.6-0.4-1.1c1.7-4,12.2-29.6,13.7-33.1c0.2-0.4,0.6-0.6,1.1-0.4
			l19.8,8.1c0.3,0.1,0.6,0.5,0.6,0.8v39.6H-138.9z"/>
		<path class="st3" d="M-248.2-182l-1.1,6.4c-0.4,2.4,2.1,4.3,4.4,3.2l5.9-3l5.9,3c2.2,1.1,4.8-0.7,4.4-3.2l-1.1-6.4l4.7-4.5
			c1.8-1.7,0.8-4.8-1.7-5.1l-6.6-0.9l-2.9-5.8c-1.1-2.2-4.3-2.2-5.4,0l-2.9,5.8l-6.6,0.9c-2.5,0.4-3.5,3.4-1.7,5.1L-248.2-182z
			 M-249.1-188.1l5.3-0.8c1-0.1,1.8-0.7,2.3-1.6l2.4-4.8l2.4,4.8c0.4,0.9,1.3,1.5,2.3,1.6l5.3,0.8l-3.8,3.6
			c-0.7,0.7-1.1,1.7-0.9,2.7l0.9,5.2l-4.8-2.5c-0.9-0.4-1.9-0.4-2.8,0l-4.8,2.5l0.9-5.2c0.2-1-0.2-2-0.9-2.7L-249.1-188.1z"/>
		<path class="st3" d="M-179.5-186.5l4.7,4.5l-1.1,6.4c-0.4,2.4,2.1,4.3,4.4,3.2l5.9-3l5.9,3c2.2,1.1,4.8-0.7,4.4-3.2l-1.1-6.4
			l4.7-4.5c1.8-1.7,0.8-4.8-1.7-5.1l-6.6-0.9l-2.9-5.8c-1.1-2.2-4.3-2.2-5.4,0l-2.9,5.8l-6.6,0.9
			C-180.3-191.3-181.3-188.3-179.5-186.5z M-175.6-188.1l5.3-0.8c1-0.1,1.8-0.7,2.3-1.6l2.4-4.8l2.4,4.8c0.4,0.9,1.3,1.5,2.3,1.6
			l5.3,0.8l-3.8,3.6c-0.7,0.7-1.1,1.7-0.9,2.7l0.9,5.2l-4.8-2.5c-0.9-0.4-1.9-0.4-2.8,0l-4.8,2.5l0.9-5.2c0.2-1-0.2-2-0.9-2.7
			L-175.6-188.1z"/>
		<path class="st3" d="M-216.1-201.5l-4.9-4.7l11-1.6c1.2-0.2,2.2-0.9,2.8-2l4.9-9.8l4.9,9.8c0.5,1.1,1.6,1.8,2.8,2l11,1.6l-7.9,7.6
			c-0.9,0.8-1.3,2.1-1.1,3.3l1.9,10.7l-9.9-5.1c-1.1-0.5-2.3-0.5-3.4,0l-9.9,5.1l1.1-6.2c0.2-1-0.5-2-1.6-2.2c-1-0.2-2,0.5-2.2,1.6
			l-1.1,6.5c-0.5,3,2.6,5.3,5.3,3.9l10.1-5.2l10.1,5.2c2.7,1.4,5.9-0.9,5.3-3.9l-1.9-11l8.1-7.7c2.2-2.1,1-5.8-2-6.2l-11.2-1.6
			l-5-10c-1.4-2.7-5.2-2.7-6.6,0l-5,10l-11.2,1.6c-3,0.4-4.2,4.1-2,6.2l5.2,5c0.8,0.7,2,0.7,2.7-0.1
			C-215.3-199.5-215.3-200.7-216.1-201.5z"/>
	</g>
	<g class="st0">
		<path class="st2" d="M-384.9-114.7c-4.8,12.2-11.7,23.7-21.6,31.4c-12.2,9.6-27.7,12.4-42.4,16.1c-32.5,8-64.7,20.8-98,19.9
			s-69.5-20.4-77.9-55.3c-9.3-38.3,16.9-74.7,28.9-112.1c4.3-13.5,7-27.8,14.5-39.4c33.3-51.4,90.1-4,129.6,8.4
			C-395.7-228.2-359.9-178.7-384.9-114.7z"/>
		<g class="st4">
			<path class="st5" d="M-500.8-186.4c-14,0-26.1,10-28.7,23.7c-0.2,1.2,0.5,2.3,1.7,2.5s2.3-0.5,2.5-1.7
				c2.2-11.8,12.5-20.2,24.5-20.2c13.7,0,24.9,11.2,24.9,24.8s-11.2,24.8-24.9,24.8c-12,0-22.3-8.5-24.5-20.2
				c-0.2-1.2-1.3-1.9-2.5-1.7c-1.2,0.2-1.9,1.3-1.7,2.5c2.6,13.8,14.6,23.7,28.7,23.7c16.1,0,29.1-13.1,29.1-29
				S-484.7-186.4-500.8-186.4z"/>
			<path class="st5" d="M-443.2-172.2h-5c-1.2,0-2.1,1-2.1,2.1c0,1.2,1,2.1,2.1,2.1h5c5.9,0,10.8,4.8,10.8,10.8
				c0,5.9-4.8,10.8-10.8,10.8h-19.2c0.9-3.2,1.4-6.6,1.5-10c0-0.5,0-1,0-1.6c-0.1-3.4-0.6-6.7-1.5-10h4.3c1.2,0,2.1-1,2.1-2.1
				c0-1.2-1-2.1-2.1-2.1h-5.8c-5.9-14.6-20.2-24.7-36.9-24.7c-16.6,0-30.9,10.3-36.8,24.7h-30.7c-2.7,0-5,2.2-5,5v20
				c0,2.7,2.2,5,5,5h16.8c1.2,0,2.1-1,2.1-2.1c0-1.2-1-2.1-2.1-2.1h-2.4v-21.4h14.9c-0.9,3.2-1.4,6.6-1.5,10c0,0.5,0,1,0,1.6
				c0.1,3.4,0.6,6.7,1.5,10h-2.6c-1.2,0-2.1,1-2.1,2.1c0,1.2,1,2.1,2.1,2.1h4.1c5.9,14.5,20.2,24.7,36.8,24.7s30.9-10.3,36.8-24.7
				h20.7c8.3,0,15-6.7,15-15C-428.2-165.5-435-172.2-443.2-172.2z M-558.2-146.6h-10.1c-0.4,0-0.7-0.3-0.7-0.7v-7.9h3.7
				c1.2,0,2.1-1,2.1-2.1c0-1.2-1-2.1-2.1-2.1h-3.7v-7.9c0-0.4,0.3-0.7,0.7-0.7h10.1V-146.6z M-500.8-121.8
				c-19.3,0-35-15.4-35.5-34.5c0-0.6,0-1.2,0-1.8c0.5-19.1,16.3-34.6,35.5-34.6s35,15.4,35.5,34.5c0,0.6,0,1.2,0,1.8
				C-465.7-137.2-481.5-121.8-500.8-121.8z"/>
			<path class="st5" d="M-500.8-178.6c-1.2,0-2.1,1-2.1,2.1v19.1c0,1.2,1,2.1,2.1,2.1h13.5c1.2,0,2.1-1,2.1-2.1c0-1.2-1-2.1-2.1-2.1
				h-11.4v-17.1C-498.6-177.6-499.6-178.6-500.8-178.6z"/>
			<path class="st5" d="M-449.3-155.2h0.4c1.2,0,2.1-1,2.1-2.1c0-1.2-1-2.1-2.1-2.1h-0.4c-1.2,0-2.1,1-2.1,2.1
				S-450.4-155.2-449.3-155.2z"/>
		</g>
	</g>
	<g class="st0">
		<path class="st6" d="M96.4-50.3c3.8-0.3,7.6-0.6,11.4-0.7c48.7-2.1,108.7-35.6,110.7-96.3c1.2-35.4-0.5-74.9-22.3-100.1
			c-13.6-15.8-33.1-22.9-52.1-26.9c-17.4-3.6-35.4-4.8-52.6-0.3c-45,11.7-75.4,58.4-101.7,101.9c-9.9,16.4-20.2,33.9-20.9,53.8
			c-1.2,31.6,23,58.4,49.6,67C43.2-43.8,70.7-48.2,96.4-50.3z"/>
		<g class="st4">
			<g>
				<g>
					<path class="st5" d="M158.5-152.6c-0.1-1.1-1.1-2-2.2-1.9c-1.1,0.1-2,1.1-1.9,2.2c0.1,1.2,0.1,2.4,0.1,3.6
						c0,25.3-20.7,46.1-46.2,46.1s-46.1-20.7-46.1-46.2c0-8.6,2.4-17,6.9-24.2c0.2-0.3,0.3-0.5,0.3-0.8l3.4-28.5l19.7,9.8
						c0.5,0.2,1,0.3,1.6,0.1c4.6-1.5,9.4-2.3,14.3-2.3s9.7,0.8,14.3,2.3c0.5,0.2,1.1,0.1,1.6-0.1l19.7-9.8l3.4,28.5
						c0,0.3,0.1,0.6,0.3,0.8c2.3,3.7,4.1,7.8,5.3,12c0.3,1.1,1.4,1.7,2.5,1.4c1.1-0.3,1.7-1.4,1.4-2.5c-1.2-4.5-3.1-8.7-5.5-12.7
						l-3.7-31c-0.2-1.4-1.7-2.2-3-1.6l-21.5,10.8c-4.8-1.5-9.8-2.2-14.8-2.2s-10,0.7-14.8,2.2l-21.5-10.8c-1.3-0.6-2.8,0.2-3,1.6
						l-3.7,31c-4.8,7.9-7.3,16.9-7.3,26c0,8.1,1.9,15.8,5.4,22.6c0,0.1,0.1,0.2,0.1,0.4l10,25.8c0.3,0.8,1.1,1.3,1.9,1.3h6.6
						c0.9,0,1.7-0.6,2-1.5l1.3-4.2c6.9,3.6,14.7,5.6,23.1,5.6c8.3,0,16.1-2,23.1-5.6l1.3,4.2c0.3,0.9,1.1,1.5,2,1.5h6.6
						c0.9,0,1.6-0.5,1.9-1.3l10.1-26.1c0-0.1,0.1-0.2,0.1-0.3c3.4-6.8,5.3-14.4,5.3-22.4C158.6-150.1,158.6-151.4,158.5-152.6z
						 M80.6-102.7H77l-4.1-10.7c2.7,2.7,5.6,5.1,8.9,7.1L80.6-102.7z M139.8-102.7h-3.6l-1.1-3.6c3.2-2,6.2-4.4,8.9-7.1L139.8-102.7
						z"/>
				</g>
			</g>
			<g>
				<g>
					<path class="st5" d="M143.9-181.5l-1.7-14.3c-0.2-1.4-1.7-2.2-3-1.6l-11.8,5.9c-1.4,0.7-1.5,2.7-0.2,3.6l13.5,8.4
						c0.3,0.2,0.7,0.3,1.1,0.3C143.1-179.2,144.1-180.3,143.9-181.5z M132.6-189.5l5.9-3l0.8,7.2L132.6-189.5z"/>
				</g>
			</g>
			<g>
				<g>
					<path class="st5" d="M89.3-191.5l-11.8-5.9c-1.3-0.6-2.8,0.2-3,1.6l-1.7,14.4c-0.2,1.7,1.7,2.9,3.1,2l13.5-8.4
						c0.6-0.4,1-1.1,1-1.8C90.4-190.5,90-191.2,89.3-191.5z M77.4-185.2l0.8-7.2l5.9,3L77.4-185.2z"/>
				</g>
			</g>
			<g>
				<g>
					<path class="st5" d="M128.1-172.6c-3.5,0-6.4,2.9-6.4,6.4c0,1.1,0.9,2.1,2.1,2.1s2.1-0.9,2.1-2.1c0-1.3,1-2.3,2.3-2.3
						s2.3,1,2.3,2.3c0,1.1,0.9,2.1,2.1,2.1c1.1,0,2.1-0.9,2.1-2.1C134.5-169.8,131.6-172.6,128.1-172.6z"/>
				</g>
			</g>
			<g>
				<g>
					<path class="st5" d="M88.7-172.6c-3.5,0-6.4,2.9-6.4,6.4c0,1.1,0.9,2.1,2.1,2.1s2.1-0.9,2.1-2.1c0-1.3,1-2.3,2.3-2.3
						s2.3,1,2.3,2.3c0,1.1,0.9,2.1,2.1,2.1s2.1-0.9,2.1-2.1C95.1-169.8,92.2-172.6,88.7-172.6z"/>
				</g>
			</g>
			<g>
				<g>
					<path class="st5" d="M108.4-163.9c-8.4,0-15.2,5.3-15.2,11.9c0,6.6,6.8,11.9,15.2,11.9s15.2-5.3,15.2-11.9
						C123.6-158.6,116.8-163.9,108.4-163.9z M108.4-144.3c-6.1,0-11.1-3.5-11.1-7.8s5-7.8,11.1-7.8s11.1,3.5,11.1,7.8
						S114.5-144.3,108.4-144.3z"/>
				</g>
			</g>
			<g>
				<g>
					<path class="st5" d="M100.8-152.7c-0.9,0.5-1.2,1.6-0.8,2.5c0.3,0.8,1.1,1.3,2,1.3c0.8,0,1.6-0.6,1.9-1.4
						C104.3-152.1,102.3-153.7,100.8-152.7z"/>
				</g>
			</g>
			<g>
				<g>
					<path class="st5" d="M116.3-152.6c-0.7-0.6-1.7-0.6-2.4-0.1c-0.8,0.5-1.1,1.6-0.8,2.5c0.3,0.8,1.1,1.3,1.9,1.3
						c0.8,0,1.6-0.6,1.9-1.4C117.2-151.1,116.9-152,116.3-152.6z"/>
				</g>
			</g>
			<g>
				<g>
					<path class="st5" d="M129.8-140.7c-0.6-0.9-1.9-1.2-2.9-0.5c-5.5,3.7-11.9,5.7-18.6,5.7c-6.7,0-13.1-2-18.6-5.7
						c-0.9-0.6-2.2-0.4-2.9,0.5c-0.6,0.9-0.4,2.2,0.5,2.9c6.2,4.2,13.4,6.4,20.9,6.4s14.7-2.2,20.9-6.4
						C130.2-138.4,130.4-139.7,129.8-140.7z"/>
				</g>
			</g>
			<g>
				<g>
					<path class="st5" d="M108.4-237.5c-10.4,0-18.9,8.5-18.9,18.8c0,10.4,8.4,18.9,18.9,18.9c10.4,0,18.9-8.5,18.9-18.8
						C127.3-228.9,118.8-237.5,108.4-237.5z M108.4-203.9c-8.2,0-14.8-6.7-14.8-14.8s6.7-14.8,14.8-14.8c8.2,0,14.8,6.7,14.8,14.8
						S116.6-203.9,108.4-203.9z"/>
				</g>
			</g>
			<g>
				<g>
					<path class="st5" d="M171.9-174.8h-2.3v-2.3c0-1.1-0.9-2.1-2.1-2.1s-2.1,0.9-2.1,2.1v2.3h-2.2c-1.1,0-2.1,0.9-2.1,2.1
						c0,1.1,0.9,2.1,2.1,2.1h2.3v2.3c0,1.1,0.9,2.1,2.1,2.1s2.1-0.9,2.1-2.1v-2.3h2.3c1.1,0,2.1-0.9,2.1-2.1
						C174-173.9,173.1-174.8,171.9-174.8z"/>
				</g>
			</g>
			<g>
				<g>
					<path class="st5" d="M145.6-229.4h-2.3v-2.3c0-1.1-0.9-2.1-2.1-2.1s-2.1,0.9-2.1,2.1v2.3h-2.3c-1.1,0-2.1,0.9-2.1,2.1
						c0,1.2,0.9,2.1,2.1,2.1h2.3v2.3c0,1.1,0.9,2.1,2.1,2.1s2.1-0.9,2.1-2.1v-2.3h2.3c1.1,0,2.1-0.9,2.1-2.1
						C147.7-228.5,146.8-229.4,145.6-229.4z"/>
				</g>
			</g>
			<g>
				<g>
					<path class="st5" d="M53.6-188h-2.3v-2.3c0-1.1-0.9-2.1-2.1-2.1s-2.1,0.9-2.1,2.1v2.3h-2.3c-1.1,0-2.1,0.9-2.1,2.1
						c0,1.1,0.9,2.1,2.1,2.1h2.3v2.3c0,1.1,0.9,2.1,2.1,2.1s2.1-0.9,2.1-2.1v-2.3h2.3c1.1,0,2.1-0.9,2.1-2.1S54.7-188,53.6-188z"/>
				</g>
			</g>
			<g>
				<g>
					<path class="st7" d="M108.4-227.9c-5.2,0-9.4,4.2-9.4,9.4c0,5.2,4.2,9.4,9.4,9.4s9.4-4.2,9.4-9.4
						C117.8-223.8,113.5-227.9,108.4-227.9z M108.4-211.4c-4,0-7.3-3.3-7.3-7.3c0-4,3.3-7.3,7.3-7.3s7.3,3.3,7.3,7.3
						C115.7-214.7,112.4-211.4,108.4-211.4z"/>
				</g>
			</g>
		</g>
	</g>
	<g>
		<path class="st8" d="M62.7,212.8c-9.9-6.6-19.1-14.4-28.2-22.1c-12.1-10.4-24.6-21.5-30.2-37C-7,122.4,5.5,65.4,26.2,41
			C39.7,25.1,67.7,14.2,86.5,7.6c22-7.8,46-9.3,68.6-3.8c36,8.8,68,35.3,84.9,70.4c5.9,12.3,10.2,25.8,10,39.7
			c-0.3,18-7.9,35.1-17.5,49.9c-16.8,26-40.4,47.4-68,58.6c-27.6,11.2-59.3,11.7-86.4-0.9C72.8,219.1,67.7,216.1,62.7,212.8z"/>
		<g>
			<path class="st5" d="M170.6,63.3h-9.3v-6.7c0-3.9-3.2-7-7-7c-3.9,0-7,3.2-7,7v6.7h-32.2c-1,0-1.9,0.8-1.9,1.9
				c0,1,0.8,1.9,1.9,1.9h32.1v4.2c0,3.9,3.2,7,7,7c3.9,0,7-3.2,7-7v-4.2h9.2c5.6,0,10.2,4.6,10.2,10.2v14.6H67.1V77.3
				c0-5.6,4.6-10.2,10.2-10.2h9.2v4.2c0,3.9,3.2,7,7,7c3.9,0,7-3.2,7-7v-4.2h7.1c1,0,1.9-0.8,1.9-1.9c0-1-0.8-1.9-1.9-1.9h-7.1v-6.7
				c0-3.9-3.2-7-7-7s-7,3.2-7,7v6.7h-9.3c-7.6,0-13.9,6.2-13.9,13.9V160c0,7.7,6.2,13.9,13.9,13.9c0,0,0,0,0.1,0s0,0,0.1,0h8
				c1,0,1.9-0.8,1.9-1.9c0-1-0.8-1.9-1.9-1.9h-8c0,0,0,0-0.1,0c0,0,0,0-0.1,0c-0.4,0-0.9,0-1.3-0.1c0-0.1,0-0.2,0-0.3V95.4h95.8
				v73.9c0,0.2,0,0.4,0.1,0.5c-0.4,0.1-0.9,0.1-1.3,0.1H92.8c-1,0-1.9,0.8-1.9,1.9c0,1,0.8,1.9,1.9,1.9h78.4c0.1,0,0.3,0,0.4,0
				c7.2-0.5,12.9-6.5,12.9-13.9V77.1C184.4,69.6,178.2,63.3,170.6,63.3z M157.6,71.2c0,1.8-1.5,3.3-3.3,3.3S151,73,151,71.2V56.5
				c0-1.8,1.5-3.3,3.3-3.3s3.3,1.5,3.3,3.3V71.2z M90.2,56.6c0-1.8,1.5-3.3,3.3-3.3s3.3,1.5,3.3,3.3v14.7c0,1.8-1.5,3.3-3.3,3.3
				s-3.3-1.5-3.3-3.3V56.6z M72.3,168.7c-3.1-1.7-5.2-5.1-5.2-8.8V95.4h5.2V168.7z M175.5,168.7V95.4h5.2v64.4
				C180.7,163.6,178.6,166.9,175.5,168.7z"/>
			<path class="st5" d="M111.8,127.5c-0.6,0.2-1.1,0.6-1.3,1.2c-0.2,0.6-0.1,1.3,0.3,1.8l4.3,5.4l-0.4,6.9c0,0.6,0.3,1.2,0.8,1.6
				c0.3,0.2,0.7,0.4,1.1,0.4c0.2,0,0.5,0,0.7-0.1l6.4-2.5l6.4,2.5c0.6,0.2,1.3,0.1,1.8-0.2c0.5-0.4,0.8-1,0.8-1.6l-0.4-6.9l4.3-5.4
				c0.4-0.5,0.5-1.2,0.3-1.8c-0.2-0.6-0.7-1.1-1.3-1.2l-6.7-1.8l-3.8-5.8c-0.3-0.5-0.9-0.8-1.6-0.8s-1.2,0.3-1.6,0.8l-3.8,5.8
				L111.8,127.5z M121.2,128.3l2.6-4l2.6,4c0.3,0.4,0.6,0.7,1.1,0.8l4.6,1.2l-3,3.7c-0.3,0.4-0.4,0.8-0.4,1.3l0.2,4.7l-4.4-1.7
				c-0.2-0.1-0.4-0.1-0.7-0.1s-0.5,0-0.7,0.1l-4.4,1.7l0.2-4.7c0-0.5-0.1-0.9-0.4-1.3l-3-3.7l4.6-1.2
				C120.6,129,121,128.7,121.2,128.3z"/>
			<path class="st5" d="M123.7,116c1,0,1.9-0.8,1.9-1.9v-7.9c0-1-0.8-1.9-1.9-1.9c-1,0-1.9,0.8-1.9,1.9v7.9
				C121.8,115.2,122.7,116,123.7,116z"/>
			<path class="st5" d="M141.2,112.6l-5.6,5.6c-0.7,0.7-0.7,1.9,0,2.6c0.4,0.4,0.8,0.5,1.3,0.5s1-0.2,1.3-0.5l5.6-5.6
				c0.7-0.7,0.7-1.9,0-2.6C143.1,111.9,141.9,111.9,141.2,112.6z"/>
			<path class="st5" d="M152.3,132.5c0-1-0.8-1.9-1.9-1.9h-7.9c-1,0-1.9,0.8-1.9,1.9c0,1,0.8,1.9,1.9,1.9h7.9
				C151.5,134.4,152.3,133.5,152.3,132.5z"/>
			<path class="st5" d="M135.9,144.5c-0.7,0.7-0.7,1.9,0,2.6l5.6,5.6c0.4,0.4,0.8,0.5,1.3,0.5s1-0.2,1.3-0.5c0.7-0.7,0.7-1.9,0-2.6
				l-5.6-5.6C137.8,143.7,136.7,143.7,135.9,144.5z"/>
			<path class="st5" d="M122.2,151.4v7.9c0,1,0.8,1.9,1.9,1.9c1,0,1.9-0.8,1.9-1.9v-7.9c0-1-0.8-1.9-1.9-1.9
				C123.1,149.5,122.2,150.4,122.2,151.4z"/>
			<path class="st5" d="M109.5,144.7l-5.6,5.6c-0.7,0.7-0.7,1.9,0,2.6c0.4,0.4,0.8,0.5,1.3,0.5s1-0.2,1.3-0.5l5.6-5.6
				c0.7-0.7,0.7-1.9,0-2.6C111.4,144,110.2,144,109.5,144.7z"/>
			<path class="st5" d="M95.5,132.9c0,1,0.8,1.9,1.9,1.9h7.9c1,0,1.9-0.8,1.9-1.9c0-1-0.8-1.9-1.9-1.9h-7.9
				C96.3,131.1,95.5,131.9,95.5,132.9z"/>
			<path class="st5" d="M106.3,112.9c-0.7-0.7-1.9-0.7-2.6,0c-0.7,0.7-0.7,1.9,0,2.6l5.6,5.6c0.4,0.4,0.8,0.5,1.3,0.5s1-0.2,1.3-0.5
				c0.7-0.7,0.7-1.9,0-2.6L106.3,112.9z"/>
		</g>
	</g>
	<g class="st0">
		<path class="st6" d="M-316.4,106.4c0.2-4.9,0.7-9.8,1.7-14.9C-296.4-1.8-178.3-16-113.6,20.7c12.5,7.1,24.2,16.4,32.9,28.6
			c23.7,33.4,11.8,73.4,6.9,111.5c-1.5,12-3.1,24.1-8.3,34.8c-8,16.4-23.6,26.9-39.9,31.9c-16.3,4.9-33.5,4.9-50.4,4.9
			c-16.3,0-32.9-0.1-48.4-5.6C-266.4,210.6-318.3,163.4-316.4,106.4z"/>
		<g class="st4">
			<path class="st5" d="M-121.6,93.6c-1-0.6-2.1-0.9-3.2-1c-4.4-0.5-8.4,2.3-9.5,6.5L-139,122l-0.8,4c-0.5,2.3-1.8,4.3-3.6,5.6
				l-14.7,10.6l0,0l2.5-10.5c0.6-2.5,0.2-5-1.1-7.2c-1.3-2.2-3.3-3.8-5.8-4.5c-5-1.4-10.3,1.3-12,6.3l-8.7,25.9
				c-0.1,0.2-0.2,0.5-0.2,0.7c-0.9,3.6,0,7.3,2.4,10l0,0l-4.2,7.5l-4.2-7.5l0,0c2.4-2.7,3.3-6.4,2.4-10c-0.1-0.2-0.1-0.5-0.2-0.7
				l-8.7-25.9c-1.7-5-6.9-7.7-12-6.3c-2.4,0.7-4.5,2.3-5.8,4.5c-1.3,2.2-1.7,4.7-1.1,7.2l2.5,10.5l0,0l-14.5-10.7
				c-1.9-1.4-3.2-3.4-3.6-5.6l-0.8-4l-4.7-22.8c-1.1-4.2-5.2-7-9.5-6.5c-1.2,0.1-2.2,0.5-3.2,1c-3.1,1.7-4.8,5.1-4.5,8.6l3.6,35.8
				c0.3,3.4,2.1,6.6,4.8,8.7l17.1,13.7c0.8,0.6,1.9,0.5,2.6-0.3c0.6-0.8,0.5-1.9-0.3-2.6l-17.1-13.7c-1.9-1.5-3.2-3.8-3.4-6.3
				l-3.6-35.8c-0.2-2,0.8-4,2.6-5c0.6-0.3,1.2-0.5,1.9-0.6c2.6-0.3,5.1,1.5,5.6,4.1l5.4,26.3c0.6,3.2,2.5,6,5.1,7.9l18.7,13.5
				c0.6,0.4,1.5,0.5,2.1,0c0.6-0.4,0.9-1.2,0.8-1.9l-3.7-15.3c-0.4-1.5-0.1-3.1,0.7-4.5c0.8-1.4,2.1-2.4,3.6-2.8
				c3.2-0.9,6.4,0.8,7.5,3.9l8.7,25.9c0.1,0.2,0.1,0.3,0.1,0.5c0.8,3-0.5,6.2-3.1,7.9c-0.1,0.1-0.3,0.2-0.4,0.2l0,0l1.8,3.2l4.3,7.6
				c0,0,0,0,0,0.1l2.2,3.9h-21.7v0.1l-4.8-8.7c-0.1-0.2-0.3-0.4-0.5-0.5l-7-5.6c-0.8-0.6-1.9-0.5-2.6,0.3c-0.6,0.8-0.5,1.9,0.3,2.6
				l6.7,5.4l4.7,8.4c0.4,0.7,1.3,1.1,2.1,0.9c0.1,0,0.2-0.1,0.3-0.1h46.3c0.1,0,0.2,0.1,0.3,0.1c0.8,0.2,1.6-0.1,2.1-0.9l4.7-8.4
				l12.4-9.9l17.1-13.7c2.7-2.1,4.4-5.3,4.8-8.7l3.6-35.8C-116.8,98.6-118.5,95.3-121.6,93.6z M-120.8,101.8l-3.6,35.8
				c-0.2,2.4-1.5,4.7-3.4,6.3l-17.1,13.7l-5.5,4.4c-0.1,0-0.2,0.1-0.2,0.2c0,0-2.6,2.1-4.8,3.9l0,0l0,0c-1.4,1.2-2.6,2.2-2.7,2.2
				l-4.8,8.7v-0.1h-19.3l-1.1-2.3l1.6-3l3.6-6.4l1.8-3.2l0,0c-0.1-0.1-0.3-0.2-0.4-0.2c-2.6-1.7-3.9-4.9-3.1-7.9
				c0-0.2,0.1-0.3,0.1-0.5l8.7-25.9c1-3.1,4.3-4.8,7.5-3.9c1.5,0.4,2.8,1.4,3.6,2.8c0.8,1.4,1,3,0.7,4.5l-3.7,15.3
				c-0.2,0.7,0.1,1.5,0.8,1.9c0.6,0.4,1.5,0.4,2.1,0l18.7-13.5c2.6-1.9,4.4-4.7,5.1-7.9l5.4-26.3c0.5-2.6,3-4.4,5.6-4.1
				c0.7,0.1,1.3,0.3,1.9,0.6C-121.6,97.8-120.6,99.7-120.8,101.8z"/>
			<path class="st5" d="M-188.4,88.1c0.4,0.3,0.8,0.6,1.2,0.7v7.2c0,1,0.8,1.9,1.9,1.9c1,0,1.9-0.8,1.9-1.9v-7.2
				c0.4-0.2,0.8-0.4,1.2-0.7c5.8-5,9.1-12.3,9.1-19.8c0-2.1-0.3-4.2-0.7-6.2c-0.2-1-1.3-1.6-2.3-1.4c-1,0.2-1.6,1.3-1.4,2.3
				c0.4,1.7,0.6,3.5,0.6,5.3c0,6-2.4,11.7-6.6,15.9V64.4c0-1-0.8-1.9-1.9-1.9c-1,0-1.9,0.8-1.9,1.9v19.6c-4.2-4.2-6.6-9.9-6.6-15.9
				c0-6.9,3.1-13.3,8.4-17.6c1.8,1.4,3.3,3.1,4.6,5c0.6,0.9,1.8,1.1,2.6,0.5c0.9-0.6,1.1-1.8,0.5-2.6c-1.5-2.2-3.3-4.2-5.4-5.9
				c-1.4-1.1-3.3-1.1-4.7,0c-6.3,5-9.9,12.5-9.9,20.4C-197.5,75.8-194.2,83.1-188.4,88.1z"/>
			<path class="st5" d="M-171,106.2c0.5,0,1-0.2,1.3-0.6l5.1-5.1c0.4,0.2,0.9,0.3,1.4,0.3c0.7,0,1.3,0.1,2,0.1
				c6.9,0,13.6-2.7,18.6-7.7c5.7-5.7,8.4-13.5,7.5-21.4c-0.2-1.7-1.5-3.1-3.3-3.3c-8-0.9-15.8,1.8-21.5,7.5
				c-5.4,5.4-8.2,12.9-7.6,20.4c0,0.5,0.1,0.9,0.3,1.4l-5.1,5.1c-0.7,0.7-0.7,1.9,0,2.7C-171.9,106-171.5,106.2-171,106.2z
				 M-157.3,78.7c4.3-4.3,9.9-6.6,15.9-6.6c0.8,0,1.7,0,2.5,0.1c0.8,6.8-1.6,13.5-6.4,18.3c-4.2,4.2-9.9,6.6-15.9,6.6l14-14
				c0.7-0.7,0.7-1.9,0-2.7c-0.7-0.7-1.9-0.7-2.7,0l-14,14C-163.8,88.7-161.5,83-157.3,78.7z"/>
			<path class="st5" d="M-227.6,93.3c4.9,4.9,11.6,7.7,18.6,7.7c0.7,0,1.3,0,2-0.1c0.5,0,0.9-0.1,1.4-0.3l5.1,5.1
				c0.4,0.4,0.9,0.6,1.3,0.6c0.5,0,1-0.2,1.3-0.6c0.7-0.7,0.7-1.9,0-2.7l-5.1-5.1c0.2-0.4,0.3-0.9,0.3-1.4
				c0.6-7.6-2.2-15.1-7.6-20.4c-5.7-5.7-13.5-8.4-21.5-7.5c-1.7,0.2-3.1,1.5-3.3,3.3C-236.1,79.8-233.3,87.7-227.6,93.3z
				 M-231.4,72.3c6.8-0.8,13.5,1.6,18.4,6.4c4.2,4.2,6.6,9.9,6.6,15.9l-14-14c-0.7-0.7-1.9-0.7-2.7,0c-0.7,0.7-0.7,1.9,0,2.7l14,14
				c-5.9,0-11.6-2.4-15.9-6.6C-229.8,85.8-232.2,79.1-231.4,72.3z"/>
		</g>
	</g>
	<g class="st0">
		<path class="st2" d="M-557,26c17.3-10,34.2-9.7,52.4-14.3c18.4-4.6,29.8-11.4,49.9-7.1c71.2,15.3,106.3,99,79.2,168.3
			c-12.9,33.1-43.3,59.4-77.3,60.6c-16.9,0.6-33.5-4.8-49.3-11.1c-26.7-10.7-52.3-24.3-77.8-38c-9.7-5.2-19.7-10.7-26.7-19.5
			c-15.2-19.4-10.5-48.9-0.2-71.7C-595.6,68.6-580.5,39.6-557,26z"/>
		<g class="st4">
			<path class="st5" d="M-422.3,182.4l-13.8-42.6c0.8-0.5,1.5-1.1,2-1.8c2-2.5,2.2-5.8,0.7-8.6c-1-1.7-0.5-3.8,1.1-4.9
				c2.6-1.8,3.8-4.9,3.1-8c-0.7-3.1-3.2-5.4-6.3-5.9c-1.9-0.3-3.3-2-3.1-3.9c0.2-3.2-1.5-6.1-4.3-7.5c-2.9-1.4-6.2-0.9-8.5,1.3
				c-1.4,1.3-3.6,1.3-5,0c-2.3-2.1-5.7-2.7-8.5-1.3c-2.9,1.4-4.5,4.3-4.3,7.5c0.1,1.9-1.2,3.6-3.1,3.9c-3.1,0.5-5.6,2.8-6.3,5.9
				c-0.7,3.1,0.5,6.2,3.1,8c0.8,0.5,1.3,1.4,1.5,2.3h-67.5c-0.4,0-0.7-0.3-0.7-0.7V61.8c0-0.4,0.3-0.7,0.7-0.7H-439
				c0.4,0,0.7,0.3,0.7,0.7v37.9c0,1.1,0.9,2,2,2s2-0.9,2-2V61.8c0-2.6-2.1-4.6-4.6-4.6h-102.6c-2.6,0-4.6,2.1-4.6,4.6v64.3
				c0,2.6,2.1,4.6,4.6,4.6h66.5c-0.8,2.4-0.4,5.2,1.3,7.2c2,2.5,5.2,3.5,8.2,2.5c1.8-0.6,3.8,0.4,4.5,2.2c1.2,2.9,3.9,4.8,7.1,4.8
				l-13.2,40.7c0,0,0,0.1-0.1,0.1s-0.1,0-0.2-0.1l-5-5.5c-0.5-0.5-1.2-0.8-1.9-0.6l-7.2,1.5c0,0-0.1,0-0.2-0.1c-0.1-0.1,0-0.1,0-0.2
				l11.5-35.5c0.3-1-0.2-2.2-1.3-2.5c-1-0.3-2.2,0.2-2.5,1.3l-11.5,35.5c-0.5,1.4-0.1,2.9,0.9,4.1c1,1.1,2.5,1.6,3.9,1.3l6.1-1.3
				l4.2,4.6c0.8,0.9,1.9,1.4,3.1,1.4c0.3,0,0.6,0,0.9-0.1c1.5-0.3,2.6-1.4,3.1-2.8l14.1-43.5c1.1-0.8,2-2,2.5-3.3
				c0.7-1.8,2.7-2.7,4.5-2.2c0.8,0.2,1.6,0.3,2.4,0.3l13.8,42.7c0,0,0,0.1,0,0.2c-0.1,0.1-0.1,0.1-0.2,0.1l-7.2-1.5
				c-0.7-0.1-1.4,0.1-1.9,0.6l-5,5.5c0,0-0.1,0.1-0.2,0.1c-0.1,0-0.1-0.1-0.1-0.1l-7.9-24.3c-0.3-1-1.5-1.6-2.5-1.3
				c-1,0.3-1.6,1.5-1.3,2.5l7.9,24.3c0.5,1.4,1.6,2.5,3.1,2.8c0.3,0.1,0.6,0.1,0.9,0.1c1.2,0,2.3-0.5,3.1-1.4l4.2-4.6l6.1,1.3
				c1.5,0.3,2.9-0.2,3.9-1.3C-422.1,185.3-421.8,183.8-422.3,182.4z M-450.5,141.3c-0.7,1.7-2.2,2.3-3.4,2.3c-1.2,0-2.8-0.6-3.4-2.3
				c-1.2-3-4.1-4.8-7.2-4.8c-0.7,0-1.5,0.1-2.2,0.3c-1.8,0.5-3.2-0.3-4-1.2c-0.8-0.9-1.2-2.5-0.3-4.1c2-3.4,1-7.9-2.3-10.1
				c-1.5-1-1.8-2.7-1.5-3.9c0.3-1.2,1.2-2.5,3-2.8c3.9-0.6,6.8-4.2,6.5-8.1c-0.1-1.8,1-3.1,2.1-3.6c1.1-0.5,2.7-0.6,4.1,0.6
				c2.9,2.7,7.5,2.7,10.4,0c1.4-1.3,3-1.1,4.1-0.6c1.1,0.5,2.2,1.7,2.1,3.6c-0.3,4,2.6,7.5,6.5,8.1c1.8,0.3,2.8,1.6,3,2.8
				c0.3,1.2,0,2.8-1.5,3.9c-3.3,2.2-4.3,6.7-2.3,10.1c0.9,1.6,0.4,3.2-0.3,4.1c-0.8,0.9-2.2,1.8-4,1.2
				C-444.9,135.6-449,137.6-450.5,141.3z"/>
			<path class="st5" d="M-532.3,67c-2,0-3.6,1.6-3.6,3.6v46.7c0,2,1.6,3.6,3.6,3.6h43.4c2,0,3.6-1.6,3.6-3.6V70.6
				c0-2-1.6-3.6-3.6-3.6H-532.3z M-489.3,71v32.7c-2.1-1.9-4.8-3-7.8-3c2.4-3,3.7-6.7,3.7-10.6c0-9.5-7.7-17.2-17.2-17.2
				s-17.2,7.7-17.2,17.2c0,3.9,1.3,7.6,3.7,10.6c-3,0-5.7,1.2-7.8,3V71H-489.3z M-489.3,116.9h-42.6v-4.3c0-4.4,3.6-7.9,7.9-7.9h4.8
				c0.9,0,1.6-0.6,1.9-1.4c0.3-0.8-0.1-1.7-0.8-2.2c-3.7-2.5-5.8-6.6-5.8-11c0-7.3,5.9-13.2,13.2-13.2s13.2,5.9,13.2,13.2
				c0,4.4-2.2,8.5-5.8,11c-0.7,0.5-1,1.4-0.8,2.2c0.3,0.8,1,1.4,1.9,1.4h4.8c4.4,0,7.9,3.6,7.9,7.9v4.3H-489.3z"/>
			<path class="st5" d="M-448.2,76.1h-27.3c-1.1,0-2,0.9-2,2c0,1.1,0.9,2,2,2h27.3c1.1,0,2-0.9,2-2C-446.2,77-447.1,76.1-448.2,76.1
				z"/>
			<path class="st5" d="M-448.2,85.5h-27.3c-1.1,0-2,0.9-2,2c0,1.1,0.9,2,2,2h27.3c1.1,0,2-0.9,2-2
				C-446.2,86.4-447.1,85.5-448.2,85.5z"/>
		</g>
	</g>
</g>
</svg>
