<?xml version="1.0" encoding="utf-8"?>
<!-- Generator: Adobe Illustrator 25.2.3, SVG Export Plug-In . SVG Version: 6.00 Build 0)  -->
<svg version="1.1" xmlns="http://www.w3.org/2000/svg" xmlns:xlink="http://www.w3.org/1999/xlink" x="0px" y="0px"
	 viewBox="0 0 83.35 80.82" style="enable-background:new 0 0 83.35 80.82;" xml:space="preserve">
<style type="text/css">
	.st0{display:none;}
	.st1{display:inline;fill:#FFFFFF;}
	.st2{display:inline;fill-rule:evenodd;clip-rule:evenodd;fill:#455A64;}
	.st3{fill-rule:evenodd;clip-rule:evenodd;fill:#0ABF00;}
	.st4{fill-rule:evenodd;clip-rule:evenodd;fill:#FFFFFF;}
</style>
<g id="BACKGROUND" class="st0">
	<rect x="-208.69" y="-340.59" class="st1" width="500" height="500"/>
	<rect x="-208.69" y="-44.59" class="st2" width="500" height="204"/>
</g>
<g id="OBJECTS">
	<path class="st3" d="M43.89,4.92c-19.31,0-35.01,15.58-35.01,34.74c0,7.6,2.48,14.64,6.67,20.37l-4.37,12.9l13.45-4.27
		c5.53,3.63,12.15,5.74,19.26,5.74c19.3,0,35.01-15.58,35.01-34.74C78.89,20.51,63.19,4.92,43.89,4.92L43.89,4.92z"/>
	<g>
		<path class="st4" d="M83.35,39.37c0,21.74-17.76,39.37-39.67,39.37c-6.96,0-13.5-1.78-19.18-4.9L2.54,80.82L9.7,59.7
			c-3.61-5.93-5.69-12.89-5.69-20.33C4.01,17.63,21.77,0,43.68,0C65.59,0,83.35,17.63,83.35,39.37L83.35,39.37z M43.68,6.27
			c-18.4,0-33.36,14.85-33.36,33.1c0,7.24,2.36,13.95,6.35,19.41l-4.17,12.29l12.82-4.07c5.27,3.45,11.57,5.47,18.35,5.47
			c18.39,0,33.35-14.85,33.35-33.1C77.04,21.12,62.07,6.27,43.68,6.27L43.68,6.27z M63.72,48.44c-0.25-0.4-0.89-0.64-1.86-1.13
			c-0.97-0.48-5.76-2.82-6.65-3.14c-0.89-0.32-1.54-0.48-2.19,0.48c-0.65,0.97-2.51,3.14-3.08,3.78c-0.57,0.65-1.13,0.72-2.1,0.24
			c-0.97-0.48-4.11-1.5-7.82-4.79c-2.89-2.56-4.84-5.72-5.41-6.68c-0.56-0.96-0.06-1.49,0.43-1.97c0.44-0.43,0.97-1.13,1.46-1.69
			c0.49-0.57,0.65-0.97,0.97-1.61c0.32-0.64,0.16-1.21-0.08-1.69c-0.24-0.48-2.19-5.23-3-7.16c-0.81-1.93-1.62-1.86-2.19-1.86
			c-0.57,0-1.62,0.17-1.62,0.17s-1.95,0.24-2.84,1.21c-0.89,0.96-3.4,3.3-3.4,8.05c0,4.75,3.48,9.34,3.97,9.98
			c0.49,0.65,6.73,10.71,16.61,14.57c9.89,3.86,9.89,2.57,11.67,2.41c1.78-0.16,5.75-2.33,6.56-4.59
			C63.96,50.77,63.96,48.84,63.72,48.44L63.72,48.44z M63.72,48.44"/>
	</g>
</g>
<g id="DESIGNED_BY_FREEPIK">
</g>
</svg>
